<svg width="923" height="480" viewBox="0 0 923 480" fill="none" xmlns="http://www.w3.org/2000/svg">
<path fill-rule="evenodd" clip-rule="evenodd" d="M510.601 4.48888C471.065 13.2196 430.36 13.9725 390.622 6.74761C375.867 2.08414 359.715 -0.268724 342.5 0.0244138C325.286 -0.268718 309.134 2.08406 294.38 6.74735C254.641 13.9725 213.935 13.2197 174.399 4.48888C61.1915 -20.5124 -20.919 62.0027 4.71063 175.391C14.333 217.965 14.333 262.035 4.71063 304.609C-20.919 417.997 61.1901 500.512 174.399 475.511C213.935 466.78 254.64 466.027 294.378 473.252C309.133 477.916 325.285 480.269 342.5 479.976C359.714 480.269 375.866 477.916 390.62 473.253C430.359 466.027 471.065 466.78 510.601 475.511C529.372 479.657 547.288 480.846 564 479.429C580.711 480.846 598.628 479.657 617.399 475.511C660.666 465.956 705.334 465.956 748.601 475.511C861.808 500.512 943.919 417.997 918.289 304.609C908.666 262.035 908.666 217.965 918.289 175.391C943.919 62.0027 861.81 -20.5124 748.601 4.48888C705.334 14.0436 660.666 14.0436 617.399 4.48888C598.628 0.343427 580.712 -0.846093 564 0.570935C547.289 -0.846093 529.373 0.343427 510.601 4.48888Z" fill="#FEF7E5"/>
</svg>
