<svg width="1804" height="800" viewBox="0 0 1804 800" fill="none" xmlns="http://www.w3.org/2000/svg">
<path fill-rule="evenodd" clip-rule="evenodd" d="M80 0C35.8172 0 0 35.8172 0 80V142.904C0 184.842 14.9306 224.942 32.3485 263.092C51.3898 304.797 62 351.159 62 400C62 448.841 51.3898 495.203 32.3485 536.908C14.9306 575.058 0 615.158 0 657.096V720C0 764.183 35.8173 800 80 800H632C676.183 800 712 764.183 712 720V720C712 675.817 747.817 640 792 640H1012C1056.18 640 1092 675.817 1092 720V720C1092 764.183 1127.82 800 1172 800H1724C1768.18 800 1804 764.183 1804 720V657.096C1804 615.158 1789.07 575.058 1771.65 536.908C1752.61 495.203 1742 448.841 1742 400C1742 351.159 1752.61 304.797 1771.65 263.092C1789.07 224.942 1804 184.842 1804 142.904V80C1804 35.8172 1768.18 0 1724 0H80Z" fill="#1679BE"/>
</svg>
