<svg width="951" height="250" viewBox="0 0 951 250" fill="none" xmlns="http://www.w3.org/2000/svg">
<path d="M42.8759 7.52281C33.2235 -2.34978 17.3954 -2.52829 7.52281 7.1241C-2.34978 16.7765 -2.52829 32.6046 7.1241 42.4772L42.8759 7.52281ZM7.1241 42.4772C55.3777 91.8317 210.955 207.027 478.039 174.315L471.961 124.685C223.045 155.173 82.2889 47.835 42.8759 7.52281L7.1241 42.4772ZM478.039 174.315C604.547 158.82 705.371 166.476 778.66 184.083C853.351 202.027 895.635 229.311 910.367 249.322L950.633 219.678C925.365 185.356 868.899 154.34 790.34 135.467C710.379 116.257 603.453 108.58 471.961 124.685L478.039 174.315Z" fill="#F9B100"/>
</svg>
