<svg width="1720" height="1374" viewBox="0 0 1720 1374" fill="none" xmlns="http://www.w3.org/2000/svg">
<path d="M863.568 633C961.068 456.333 864.568 293.5 1160.57 349.5C1486.06 411.079 1568.57 159 1694.07 25" stroke="#F9B100" stroke-width="50" stroke-linecap="round"/>
<path d="M924.068 508.5C826.568 685.167 799.568 740.499 558.07 701.499C231.042 648.686 7.56836 991 26.0684 1124" stroke="#1679BE" stroke-width="50" stroke-linecap="round"/>
<path d="M46.9443 1131.52C37.2919 1121.65 21.4638 1121.47 11.5912 1131.12C1.71858 1140.78 1.54007 1156.6 11.1925 1166.48L46.9443 1131.52ZM11.1925 1166.48C59.4461 1215.83 215.023 1331.03 482.108 1298.31L476.029 1248.69C227.113 1279.17 86.3573 1171.84 46.9443 1131.52L11.1925 1166.48ZM482.108 1298.31C608.615 1282.82 709.439 1290.48 782.729 1308.08C857.419 1326.03 899.704 1353.31 914.436 1373.32L954.701 1343.68C929.433 1309.36 872.968 1278.34 794.408 1259.47C714.447 1240.26 607.522 1232.58 476.029 1248.69L482.108 1298.31Z" fill="#F9B100"/>
</svg>
