<svg width="74" height="73" viewBox="0 0 74 73" fill="none" xmlns="http://www.w3.org/2000/svg">
<path d="M72.2828 37.6478C73.3328 40.65 74.1606 43.7033 73.9735 46.9697C73.6977 51.7856 71.2717 56.2774 68.0733 59.8884C60.3921 68.5603 49.0339 75.1911 37.2216 71.4881C23.8235 67.2877 12.1041 66.6707 5.86638 62.1988C2.69768 59.7926 0.811602 55.8651 0.25135 50.3504C-0.414305 44.1907 -0.0479464 35.6057 4.98092 31.2445C6.84989 29.6236 9.05342 28.4451 11.0877 27.037C16.2216 23.4836 20.1622 18.5425 23.6301 13.415C25.937 10.0039 28.0141 6.04194 31.3851 3.53045C34.8142 0.975984 39.3205 0.796774 43.4125 0.379568C46.3525 0.0798858 49.4004 -0.377901 52.2031 0.559342C58.7041 2.73351 62.1826 10.8903 64.6644 16.6489C66.7679 21.5301 68.4471 26.595 70.1123 31.6386C70.777 33.6509 71.5797 35.638 72.2828 37.6478Z" fill="url(#paint0_linear_276_849)"/>
<defs>
<linearGradient id="paint0_linear_276_849" x1="27" y1="26" x2="37" y2="72.537" gradientUnits="userSpaceOnUse">
<stop stop-color="#1679BE"/>
<stop offset="1" stop-color="#40A8F0"/>
</linearGradient>
</defs>
</svg>
