<svg width="110" height="108" viewBox="0 0 110 108" fill="none" xmlns="http://www.w3.org/2000/svg">
<path opacity="0.5" d="M107.447 55.963C109.008 60.4256 110.239 64.9644 109.961 69.8199C109.551 76.9786 105.944 83.6555 101.19 89.0233C89.772 101.914 72.8882 111.771 55.3294 106.266C35.4132 100.022 17.9925 99.1052 8.7203 92.4577C4.01006 88.8808 1.20644 83.0427 0.373628 74.8451C-0.615859 65.6889 -0.0712716 52.9274 7.40407 46.4445C10.1823 44.0351 13.4578 42.2832 16.4817 40.1901C24.1131 34.908 29.9709 27.5632 35.1258 19.9413C38.555 14.8707 41.6425 8.98126 46.6536 5.24796C51.7509 1.45079 58.4494 1.18439 64.532 0.564223C68.9024 0.118749 73.433 -0.561744 77.5992 0.831454C87.2629 4.06333 92.4337 16.1883 96.1227 24.7484C99.2495 32.0043 101.746 39.5331 104.221 47.0303C105.209 50.0217 106.402 52.9754 107.447 55.963Z" fill="#F9B100"/>
</svg>
