<svg width="1591" height="1316" viewBox="0 0 1591 1316" fill="none" xmlns="http://www.w3.org/2000/svg">
<path d="M1567.78 6.22002C1520.77 103.387 1460.24 228.526 1166.52 185.5C962.751 155.649 930.155 252.193 896.106 353.041C860.792 457.636 823.914 566.86 592.878 544.5C275.226 513.757 77.0528 780.301 7.77395 919.414C-7.3026 949.688 1.22682 985.042 30.128 1002.61C114.674 1053.99 305.25 1131.42 594.774 1121.48C826.533 1113.52 863.525 1152.4 898.95 1189.64C933.106 1225.54 965.804 1259.91 1170.21 1249.28C1464.85 1233.96 1525.57 1278.51 1572.72 1313.11V1313.11C1580.49 1318.8 1591 1313.26 1591 1303.63V972.5C1591 971.119 1589.88 970 1588.5 970V970C1587.12 970 1586 968.881 1586 967.5V10.55C1586 -0.167041 1572.44 -3.42751 1567.78 6.22002V6.22002Z" fill="white"/>
</svg>
