<svg width="188" height="101" viewBox="0 0 188 101" fill="none" xmlns="http://www.w3.org/2000/svg">
<path d="M158.798 85.074C159.931 86.2284 161.379 86.8091 163.142 86.8091C164.905 86.8091 166.353 86.2284 167.486 85.074C168.62 83.9198 169.186 82.4297 169.186 80.5971C169.186 78.7644 168.62 77.2744 167.486 76.1202C166.353 74.966 164.905 74.3853 163.142 74.3853C161.379 74.3853 159.931 74.966 158.798 76.1202C157.665 77.2744 157.098 78.7644 157.098 80.5971C157.098 82.4297 157.665 83.9201 158.798 85.074ZM163.143 92.5665C160.834 92.5665 158.742 92.0486 156.875 91.0063C155 89.9712 153.531 88.5374 152.475 86.7042C151.418 84.8716 150.887 82.8359 150.887 80.5971C150.887 78.3308 151.418 76.2808 152.475 74.4551C153.531 72.6363 155 71.2091 156.875 70.174C158.743 69.1455 160.834 68.6279 163.143 68.6279C165.437 68.6279 167.522 69.1455 169.396 70.174C171.264 71.2091 172.733 72.6363 173.796 74.4689C174.867 76.3015 175.398 78.3443 175.398 80.5968C175.398 82.8357 174.867 84.871 173.796 86.7039C172.733 88.5368 171.264 89.9709 169.396 91.006C167.521 92.0486 165.437 92.5665 163.143 92.5665ZM134.852 85.0324C136.021 86.2146 137.489 86.8091 139.266 86.8091C141.043 86.8091 142.519 86.2215 143.688 85.0463C144.856 83.871 145.436 82.3882 145.436 80.5971C145.436 78.8063 144.856 77.3234 143.688 76.1479C142.519 74.9729 141.043 74.3853 139.266 74.3853C137.49 74.3853 136.021 74.9801 134.852 76.162C133.684 77.3444 133.096 78.8204 133.096 80.5971C133.096 82.374 133.684 83.85 134.852 85.0324ZM139.784 68.6279C142.022 68.6279 144.044 69.1455 145.856 70.174C147.668 71.2091 149.088 72.6363 150.109 74.4689C151.137 76.3015 151.648 78.3443 151.648 80.5968C151.648 82.8495 151.137 84.8992 150.109 86.7318C149.088 88.5717 147.668 90.0127 145.856 91.0481C144.044 92.0832 142.022 92.608 139.784 92.608C137.482 92.608 135.412 91.9714 133.551 90.6981V100.107H127.423V69.2646H131.459L132.501 71.3353C134.537 69.5304 136.965 68.6279 139.784 68.6279Z" fill="#9AC43D"/>
<path d="M174.809 37.895H173.825L173.387 34.9838L172.055 37.8855H171.82L170.489 34.9869L170.05 37.895H169.067L169.763 33.4346H170.731L171.938 36.1685L173.148 33.4346H174.118L174.809 37.895ZM169.428 33.4346V34.3307H168.186V37.895H167.222V34.3307H165.984V33.4346H169.428Z" fill="#9AC43D"/>
<path d="M7.82662 40.1641H0.710938V66.535H7.82662V40.1641Z" fill="#0066A2"/>
<path d="M0.710938 36.7611V33.3594H7.82662V40.1622L0.710938 36.7611Z" fill="#99C43F"/>
<path d="M24.6569 39.5977C27.6379 39.5977 30.0097 40.5886 31.7726 42.5787C33.5271 44.569 34.4125 47.2413 34.4125 50.5879V66.5334H27.2968V51.7334C27.2968 47.7937 25.7615 45.8282 22.6991 45.8282C20.8795 45.8282 19.4419 46.4458 18.386 47.6723C17.3299 48.907 16.8019 50.5801 16.8019 52.7086V66.5337H9.68652V40.2155H14.5602L15.9413 43.4728C16.9565 42.2708 18.224 41.3204 19.7429 40.6299C21.2534 39.939 22.8943 39.5977 24.6569 39.5977Z" fill="#0066A2"/>
<path d="M50.6083 60.2058H53.841V66.5335H48.7967C45.9131 66.5335 43.6307 65.6968 41.9572 64.0236C40.2838 62.3501 39.447 60.0516 39.447 57.1351V45.9254H34.687V44.3985L45.0845 33.335H46.4411V40.2151H53.7029V45.9254H46.5627V56.1848C46.5627 57.4681 46.9122 58.4594 47.6105 59.1578C48.3094 59.8564 49.3088 60.2058 50.6083 60.2058Z" fill="#0066A2"/>
<path d="M67.4307 45.5445C65.8547 45.5445 64.5226 45.983 63.4261 46.8523C62.3377 47.7297 61.582 48.9482 61.1679 50.5158H73.9291C73.4335 48.9153 72.6296 47.6888 71.5086 46.8278C70.3873 45.9752 69.031 45.5445 67.4307 45.5445ZM81.0364 53.2775C81.0364 53.9922 80.9958 54.6908 80.8983 55.3733H60.9808C61.2812 57.1688 61.996 58.5412 63.1335 59.4999C64.2626 60.4583 65.7002 60.9375 67.4305 60.9375C68.6489 60.9375 69.7455 60.6694 70.7203 60.1334C71.7032 59.589 72.4586 58.85 72.9946 57.8916H80.4676C79.5172 60.7671 77.8683 63.0498 75.5207 64.7391C73.1731 66.4287 70.4761 67.2736 67.4302 67.2736C64.8712 67.2736 62.5562 66.6643 60.4687 65.4539C58.3809 64.2354 56.7401 62.5703 55.5542 60.4422C54.3602 58.3137 53.7671 55.9581 53.7671 53.3749C53.7671 50.7756 54.3602 48.4119 55.538 46.2837C56.7239 44.1553 58.3567 42.4902 60.4442 41.2881C62.5317 40.0777 64.8548 39.4766 67.4302 39.4766C70.0617 39.4766 72.4258 40.102 74.5213 41.3449C76.6172 42.5876 78.2255 44.2608 79.3465 46.3567C80.4759 48.4445 81.0364 50.7595 81.0364 53.2775Z" fill="#0066A2"/>
<path d="M95.3286 59.5155C97.2619 59.5155 98.8621 58.8656 100.137 57.5741C101.405 56.2827 102.038 54.6499 102.038 52.6841C102.038 50.7344 101.405 49.1183 100.146 47.8427C98.8869 46.5594 97.2786 45.9259 95.3289 45.9259C93.3957 45.9259 91.7874 46.5594 90.5201 47.8427C89.2529 49.1183 88.6195 50.7344 88.6195 52.6841C88.6195 54.6499 89.2449 56.2824 90.5121 57.5741C91.7706 58.8656 93.3789 59.5155 95.3286 59.5155ZM104.369 40.2156H108.991V63.4878C108.991 67.5979 107.789 70.8387 105.393 73.2108C102.996 75.5829 99.715 76.7688 95.5397 76.7688C91.9736 76.7688 89.0007 75.9079 86.6208 74.1938C84.2409 72.4796 82.7462 70.1159 82.145 67.1023H89.212C89.5937 68.2314 90.3737 69.1088 91.5596 69.7342C92.7374 70.3595 94.0288 70.6764 95.4261 70.6764C97.278 70.6764 98.8379 70.1162 100.113 68.9952C101.38 67.8741 102.014 66.3797 102.014 64.5111V63.512C99.7798 65.0799 97.2699 65.8677 94.4919 65.8677C92.0791 65.8677 89.87 65.291 87.8635 64.1293C85.8573 62.9679 84.2813 61.3841 83.1277 59.3615C81.9824 57.3386 81.4058 55.1133 81.4058 52.6844C81.4058 50.2719 81.9824 48.0541 83.1277 46.0317C84.281 44.0091 85.857 42.4092 87.8635 41.2394C89.8697 40.0616 92.0791 39.4766 94.4919 39.4766C97.9034 39.4766 100.82 40.5976 103.232 42.8313L104.369 40.2156Z" fill="#0066A2"/>
<path d="M124.92 40.0684H127.251V46.7778H124.181C122.183 46.7778 120.753 47.2492 119.892 48.1995C119.023 49.1418 118.593 50.693 118.593 52.8457V66.533H111.477V40.2148H116.017L117.285 43.4476C119.088 41.1975 121.638 40.0684 124.92 40.0684Z" fill="#0066A2"/>
<path d="M136.244 58.476C137.601 59.8488 139.315 60.5393 141.378 60.5393C143.433 60.5393 145.147 59.8569 146.503 58.4922C147.86 57.1275 148.534 55.4056 148.534 53.3259C148.534 51.2465 147.86 49.5243 146.503 48.1599C145.147 46.7952 143.433 46.1128 141.378 46.1128C139.315 46.1128 137.601 46.8033 136.244 48.1758C134.888 49.5488 134.213 51.2623 134.213 53.3256C134.213 55.3889 134.888 57.1033 136.244 58.476ZM150.207 40.1671H155.536V66.4853H149.939L149.322 64.1293C146.925 66.2255 144.09 67.273 140.801 67.273C138.201 67.273 135.846 66.6718 133.734 65.4617C131.622 64.2594 129.973 62.5859 128.787 60.4497C127.593 58.3215 127 55.9413 127 53.3259C127 50.7266 127.593 48.3629 128.787 46.2428C129.973 44.1311 131.622 42.4737 133.734 41.2717C135.846 40.0774 138.201 39.4766 140.801 39.4766C144.147 39.4766 147.031 40.5489 149.444 42.6851L150.207 40.1671Z" fill="#0066A2"/>
<path d="M164.913 33.4258H157.797V66.5335H164.913V33.4258Z" fill="#0066A2"/>
<path d="M133.542 29.5223L133.407 28.8424C132.673 25.1405 130.004 22.3114 125.471 20.4333C124.315 19.9543 123.047 19.5438 121.68 19.2041C130.079 20.8427 135.634 24.8228 135.394 27.4431C135.321 28.2663 134.678 28.9661 133.542 29.5223Z" fill="#0066A2"/>
<path d="M118.544 16.2607C132.374 16.2607 145.77 21.2679 152.713 34.9217C152.916 35.3164 152.575 35.7928 152.135 35.8014L119.439 38.2231L152.163 37.6017C156.957 37.5124 152.757 31.4096 151.585 29.7205C153.402 31.5105 159.392 38.7617 153.584 39.5269L143.187 38.9915L118.469 39.0131C118.452 39.0131 118.436 39.0131 118.419 39.0131C112.939 39.0131 110.221 38.64 106.868 35.539C100.971 31.0025 91.5843 26.6308 82.012 26.5628C73.2727 27.0694 68.7895 34.4359 62.832 38.3162C74.2943 26.2966 75.2962 23.0068 84.372 23.2089C94.1567 23.2089 107.433 29.8093 113.502 30.5812C117.991 31.1527 121.725 31.4038 124.786 31.4038C144.244 31.4038 136.505 21.2474 122.474 18.5731C117.619 17.6479 112.83 17.3394 107.407 17.3394C107.29 17.3394 107.172 17.3397 107.055 17.34C110.833 16.6465 114.705 16.2607 118.544 16.2607Z" fill="#99C43F"/>
<path d="M112.263 38.542C106.317 35.9164 92.9739 29.8941 83.4014 29.8261C74.6621 30.3327 71.2226 34.5054 65.2651 38.386C76.6469 27.7161 78.7278 28.2062 84.0697 28.1318C93.7579 28.2575 105.809 34.3993 109.679 36.8057L112.263 38.542Z" fill="#99C43F"/>
<path d="M113.734 38.4711C110.278 38.7877 94.6144 33.0167 85.0419 32.9484C78.7678 32.7509 74.2753 34.8277 68.1729 38.5322C78.487 30.8006 80.8637 31.1654 85.7102 31.2542C95.495 31.4554 108.375 36.9409 111.71 37.4432L113.734 38.4711Z" fill="#99C43F"/>
<path d="M132.025 9.37207L132.473 17.6636C132.173 17.5912 131.872 17.522 131.57 17.4557L131.747 14.3037C131.709 14.2985 131.672 14.2956 131.634 14.2956C130.73 14.2956 130.02 15.8151 129.189 15.8151C129.026 15.8151 128.859 15.7563 128.684 15.6164C128.829 15.0317 128.812 14.4472 128.684 13.8625C128.81 13.9248 128.923 13.9525 129.028 13.9525C129.782 13.9525 130.127 12.5495 131.528 12.5495C131.627 12.5495 131.733 12.5567 131.845 12.572L132.025 9.37207Z" fill="#0066A2"/>
<path d="M140.082 4.47461L140.504 21.2315C140.207 21.0608 139.906 20.8935 139.602 20.7318L139.893 10.8231C139.778 10.7856 139.666 10.7686 139.557 10.7686C138.376 10.7686 137.448 12.754 136.361 12.754C136.146 12.754 135.929 12.6776 135.698 12.4948C135.89 11.7304 135.868 10.9658 135.698 10.2014C135.865 10.283 136.012 10.3188 136.149 10.3188C137.138 10.3188 137.586 8.48412 139.419 8.48412C139.586 8.48412 139.768 8.49998 139.96 8.53342L140.082 4.47461Z" fill="#0066A2"/>
<path d="M150.062 0L150.529 28.4994L149.627 27.7581L149.941 7.73271C149.758 7.66524 149.579 7.63468 149.403 7.63468C147.714 7.63439 146.39 10.4713 144.838 10.4713C144.534 10.4713 144.22 10.3623 143.894 10.1008C144.166 9.00886 144.134 7.91667 143.894 6.82534C144.128 6.94211 144.339 6.99343 144.537 6.99343C145.945 6.99343 146.588 4.37309 149.205 4.37309C149.451 4.37309 149.714 4.39616 149.995 4.44633L150.062 0Z" fill="#0066A2"/>
<path d="M111.832 23.4509C115.461 23.3195 118.431 23.6167 120.247 24.4001C118.382 24.2058 116.383 24.1536 114.293 24.2291C110.296 24.3739 105.967 24.986 101.603 25.9666C100.74 25.7152 99.8547 25.4511 98.9453 25.1858C103.578 24.1873 108.06 23.5879 111.832 23.4509Z" fill="#0066A2"/>
<path d="M110.094 21.3605C115.647 21.1595 120.266 21.6584 122.668 22.9109C119.605 22.3633 116.147 22.1808 112.494 22.3132C107.424 22.4968 101.979 23.2866 96.6931 24.5477C95.579 24.2421 94.4344 23.9474 93.2568 23.6824C98.9908 22.3354 104.944 21.5471 110.094 21.3605Z" fill="#0066A2"/>
<path d="M105.986 19.0659C114.642 18.7522 122.379 19.7169 125.602 21.788C120.87 20.4917 115.084 20.0165 109.045 20.2353C102.707 20.4643 96.0881 21.4578 90.1101 23.067C88.3839 22.7856 86.5954 22.5936 84.7432 22.5382C91.1031 20.4496 98.8569 19.3242 105.986 19.0659Z" fill="#0066A2"/>
<path d="M117.954 92.4398C115.114 92.4398 112.819 91.6982 111.077 90.2151C109.336 88.7319 108.461 86.7733 108.447 84.3461H114.414C114.421 85.3117 114.778 86.06 115.463 86.5775C116.156 87.0954 117.066 87.354 118.199 87.354C119.101 87.354 119.863 87.1579 120.486 86.7592C121.109 86.3676 121.417 85.8077 121.417 85.0805C121.417 84.7097 121.312 84.3879 121.102 84.1149C120.892 83.8421 120.556 83.6181 120.109 83.4292C119.654 83.2476 119.213 83.1005 118.78 83.0028C118.339 82.8978 117.765 82.786 117.052 82.6603C116.415 82.5553 115.869 82.4573 115.436 82.3662C114.996 82.2753 114.471 82.1424 113.848 81.9674C113.225 81.7855 112.701 81.5966 112.281 81.3798C111.854 81.1699 111.407 80.883 110.938 80.5333C110.469 80.1766 110.091 79.7848 109.812 79.3508C109.532 78.9244 109.301 78.3996 109.112 77.7838C108.93 77.1682 108.839 76.4966 108.839 75.7554C108.839 73.6076 109.679 71.8658 111.358 70.5227C113.037 69.1725 115.24 68.501 117.954 68.501C120.689 68.501 122.879 69.1935 124.537 70.5787C126.188 71.9707 127.02 73.7964 127.034 76.063H121.214C121.2 75.1747 120.899 74.5028 120.305 74.0551C119.71 73.6007 118.87 73.3763 117.793 73.3763C116.849 73.3763 116.107 73.5793 115.569 73.9712C115.03 74.3699 114.757 74.8947 114.757 75.5521C114.757 75.7969 114.806 76.0209 114.89 76.2167C114.981 76.4127 115.135 76.5875 115.366 76.7273C115.589 76.8744 115.8 76.9931 116.002 77.0981C116.198 77.2028 116.499 77.3008 116.898 77.4058C117.303 77.5104 117.632 77.5805 117.884 77.6295C118.136 77.6785 118.521 77.7483 119.045 77.8463C121.242 78.2451 122.83 78.6508 123.795 79.0775C126.244 80.1688 127.468 82.0784 127.468 84.8141C127.468 87.1225 126.6 88.9692 124.866 90.3543C123.131 91.7473 120.829 92.4398 117.954 92.4398Z" fill="#9AC43D"/>
<path d="M185.752 69.0127H187.76V74.7908H185.116C183.395 74.7908 182.163 75.1965 181.422 76.0151C180.673 76.8264 180.302 78.1625 180.302 80.0162V91.8037H174.174V69.1387H178.085L179.176 71.9228C180.729 69.9852 182.926 69.0127 185.752 69.0127Z" fill="#9AC43D"/>
<path d="M114.32 38.7706C110.864 39.0872 96.5103 36.5643 86.9089 35.8242C82.4164 35.6896 78.0595 35.6607 71.4253 38.5855C78.7356 33.9397 83.2154 34.0314 86.9014 34.1202C94.0646 34.1202 103.01 36.7607 107.91 36.8855C109.904 36.9363 111.402 37.6078 112.296 37.7425L114.32 38.7706Z" fill="#99C43F"/>
</svg>
