<svg width="195" height="93" viewBox="0 0 195 93" fill="none" xmlns="http://www.w3.org/2000/svg">
<g clip-path="url(#clip0_2621_3291)">
<path d="M29.6825 44.405H8.44566C8.53492 45.183 8.64969 45.9696 8.78572 46.7689C8.92174 47.5683 9.15128 48.3549 9.46584 49.1328C9.96743 50.3212 10.7368 51.3728 11.7825 52.2833C12.8282 53.1981 14.282 53.6512 16.1438 53.6512C18.0056 53.6512 19.4594 53.1938 20.5051 52.2833C21.5508 51.3685 22.3202 50.3212 22.8218 49.1328H30.2734L30.3414 49.4064C30.5284 50.1417 30.741 50.8342 30.979 51.4839C30.7325 52.1379 30.4562 52.7492 30.1416 53.3092C29.4827 54.4976 28.7559 55.5235 27.961 56.3913C27.1661 57.259 26.3159 57.9772 25.4062 58.55C24.4966 59.1228 23.6124 59.5887 22.7495 59.9563C20.6624 60.7771 18.4562 61.1874 16.1396 61.1874C13.096 61.1404 10.3925 60.5035 8.03333 59.2681C7.0344 58.721 6.04822 58.0242 5.07054 57.1778C4.09286 56.3314 3.22996 55.2713 2.48182 53.9932C1.73368 52.715 1.13007 51.1847 0.675241 49.4022C0.220408 47.6196 -0.00488281 45.5421 -0.00488281 43.1654C-0.00488281 40.7887 0.224659 38.7112 0.675241 36.9329C1.13007 35.1504 1.72943 33.6115 2.48182 32.3077C3.22996 31.0039 4.09286 29.9224 5.07054 29.0547C6.04822 28.1869 7.0344 27.4773 8.03333 26.9301C10.3968 25.652 13.096 24.9681 16.1396 24.874C18.639 24.9638 20.9769 25.4896 23.1576 26.4514C24.0672 26.8618 24.9854 27.4004 25.9163 28.0629C26.8473 28.7255 27.7102 29.5463 28.5051 30.5294C29.2999 31.5126 30.0056 32.6753 30.6177 34.0218C30.7452 34.2954 30.86 34.5818 30.9705 34.8768C30.7325 35.5223 30.5199 36.2105 30.3371 36.9372C29.8823 38.7197 29.657 40.7972 29.657 43.1697C29.657 43.5886 29.6655 44.0032 29.6783 44.4008L29.6825 44.405ZM23.3659 38.7197C23.1406 37.9888 22.8558 37.2578 22.5157 36.5268C22.1757 35.7958 21.7081 35.1333 21.1172 34.5391C20.5264 33.9449 19.8207 33.479 19.0046 33.137C18.1884 32.795 17.232 32.624 16.1438 32.624C15.0556 32.624 14.0992 32.795 13.283 33.137C12.4669 33.479 11.7613 33.9449 11.1704 34.5391C10.5795 35.1333 10.1035 35.7958 9.73789 36.5268C9.37232 37.2578 9.10027 37.9888 8.92174 38.7197H23.3659Z" fill="#575756"/>
<path d="M62.473 38.7895H54.0267C53.8014 38.0585 53.5166 37.3403 53.1765 36.6307C52.8364 35.9211 52.3816 35.2928 51.8163 34.7456C51.2509 34.1985 50.558 33.7624 49.7376 33.4461C48.9215 33.1255 47.9438 32.9673 46.8089 32.9673C45.1298 32.9673 43.778 33.3093 42.7536 33.9933C41.7334 34.6772 40.947 35.5364 40.4029 36.5624C39.8588 37.5883 39.4933 38.6997 39.3147 39.8838C39.132 41.0721 39.0427 42.1665 39.0427 43.171C39.0427 44.1756 39.132 45.2742 39.3147 46.4582C39.4975 47.6466 39.8588 48.7537 40.4029 49.7797C40.947 50.8056 41.7334 51.6648 42.7536 52.3488C43.7738 53.0327 45.1255 53.3747 46.8089 53.3747C49.0363 53.3747 50.7026 52.7805 51.8163 51.5921C52.93 50.4038 53.6909 49.0359 54.0989 47.4799H62.4772C62.2052 49.3052 61.7631 50.8954 61.1467 52.2419C60.5346 53.5884 59.8417 54.7554 59.0681 55.7343C58.2944 56.7175 57.457 57.5254 56.5474 58.1666C55.6377 58.8078 54.7323 59.3336 53.8226 59.744C51.6887 60.7015 49.3508 61.1845 46.8046 61.1845C43.761 61.1375 41.0576 60.5006 38.6984 59.2652C37.6994 58.718 36.709 58.0213 35.7356 57.1749C34.7579 56.3285 33.895 55.2684 33.1469 53.9902C32.3987 52.7121 31.7951 51.1818 31.3403 49.3992C30.8854 47.6167 30.6602 45.5392 30.6602 43.1625C30.6602 40.7857 30.8854 38.7082 31.3403 36.93C31.7951 35.1474 32.4072 33.6085 33.1809 32.3048C33.9545 31.001 34.8174 29.9195 35.7696 29.0517C36.7218 28.184 37.7207 27.4744 38.7664 26.9272C41.1298 25.6491 43.8291 24.9651 46.8726 24.8711C49.3721 24.9609 51.6887 25.4866 53.8226 26.4485C54.7323 26.8588 55.6377 27.3974 56.5474 28.06C57.457 28.7226 58.2987 29.5561 59.0681 30.5607C59.8417 31.5652 60.5346 32.7408 61.1467 34.0873C61.7588 35.4338 62.2052 36.9984 62.4772 38.7809L62.473 38.7895Z" fill="#575756"/>
<path d="M97.3599 35.9071C97.3599 33.5304 97.8615 31.6709 98.8604 30.3244C99.8593 28.9779 100.948 27.9605 102.129 27.2765C103.536 26.4558 105.126 25.9514 106.899 25.7676H116.437V34.0562H110.031C109.122 34.0562 108.386 34.2144 107.817 34.535C107.247 34.8556 106.805 35.1975 106.486 35.5609C106.121 36.0183 105.874 36.5184 105.738 37.0698V60.4994H97.3599V35.9029V35.9071Z" fill="#575756"/>
<path d="M149.075 60.5035H140.969V55.7073L142.469 53.7196C141.696 55.6389 140.722 57.1008 139.541 58.1054C138.359 59.11 137.203 59.8409 136.068 60.2983C134.75 60.8027 133.39 61.0977 131.978 61.1874C129.164 61.1404 126.665 60.5035 124.484 59.2681C123.532 58.721 122.61 58.0242 121.726 57.1778C120.841 56.3314 120.047 55.2713 119.341 53.9932C118.635 52.715 118.07 51.1847 117.636 49.4022C117.207 47.6196 116.99 45.5421 116.99 43.1654C116.99 40.7887 117.216 38.7112 117.67 36.9329C118.125 35.1504 118.729 33.6115 119.477 32.3077C120.225 31.0039 121.088 29.9224 122.066 29.0547C123.043 28.1869 124.03 27.4773 125.028 26.9301C127.392 25.652 130.091 24.9681 133.135 24.874C135.995 24.874 138.427 25.2972 140.425 26.1393C142.423 26.9857 144.072 28.1955 145.364 29.7728C146.661 31.3502 147.6 33.2652 148.191 35.5265C148.782 37.7878 149.075 40.3569 149.075 43.2338V60.4992V60.5035ZM133.135 32.9617C131.456 32.9617 130.104 33.3037 129.079 33.9876C128.059 34.6716 127.273 35.5308 126.729 36.5567C126.185 37.5827 125.819 38.6941 125.641 39.8782C125.458 41.0665 125.369 42.1608 125.369 43.1654C125.369 44.1699 125.458 45.2685 125.641 46.4526C125.823 47.641 126.185 48.7481 126.729 49.7741C127.273 50.8 128.059 51.6592 129.079 52.3431C130.1 53.0271 131.451 53.3691 133.135 53.3691C134.818 53.3691 136.165 53.0271 137.186 52.3431C138.206 51.6592 139.001 50.8 139.57 49.7741C140.136 48.7481 140.514 47.6367 140.693 46.4526C140.875 45.2643 140.965 44.1699 140.965 43.1654C140.965 41.9343 140.884 40.7117 140.727 39.502C140.569 38.2923 140.225 37.1937 139.706 36.2148C139.184 35.2316 138.401 34.445 137.356 33.8509C136.31 33.2567 134.903 32.9617 133.13 32.9617H133.135Z" fill="#575756"/>
<path d="M167.085 24.8789C167.221 24.8789 167.71 24.9003 168.552 24.9473C169.394 24.9943 170.38 25.1867 171.515 25.5287C172.65 25.8706 173.853 26.4092 175.128 27.1402C176.399 27.8712 177.581 28.9228 178.669 30.2907C179.757 31.6586 180.658 33.3855 181.36 35.463C182.065 37.5405 182.414 40.1096 182.414 43.1703V60.5041H174.103V43.1703C174.103 42.1657 174.014 41.1355 173.831 40.0882C173.649 39.0367 173.309 38.0791 172.811 37.2114C172.31 36.3436 171.608 35.6255 170.699 35.0527C169.789 34.4841 168.586 34.1977 167.09 34.1977C165.593 34.1977 164.386 34.4841 163.481 35.0527C162.571 35.6255 161.87 36.3436 161.368 37.2114C160.867 38.0791 160.526 39.0367 160.348 40.0882C160.165 41.1398 160.076 42.1657 160.076 43.1703V60.5041H151.766V43.1703C151.766 40.1096 152.118 37.5405 152.82 35.463C153.525 33.3855 154.422 31.6628 155.511 30.2907C156.599 28.9228 157.78 27.8712 159.051 27.1402C160.322 26.4092 161.525 25.8749 162.665 25.5287C163.8 25.1867 164.777 24.99 165.593 24.9473C166.41 24.9003 166.911 24.8789 167.094 24.8789H167.085Z" fill="#575756"/>
<path fill-rule="evenodd" clip-rule="evenodd" d="M72.7901 15.6411L186.69 9.16492V83.8351L72.7901 78.1711V65.4668L64.4756 69.1344V86.5281L195 93V0L64.4756 7.28406V17.3766L72.7901 18.9924V15.6411Z" fill="#FFCC00"/>
<path d="M85.2746 25.7587V39.0743H72.7901V21.36L64.4798 19.9023V31.3585H64.4756V61.9225H64.4798V66.6075L72.7518 63.3117L72.7901 63.3203V63.2989V63.2946V47.4356H85.2746V60.5161H93.5891V25.7587H85.2746Z" fill="#575756"/>
<path d="M130.422 74.7169V65.2998H128.59V74.7169H130.422ZM137.096 70.6816C137.096 69.7925 136.884 69.0957 136.454 68.5956C136.025 68.0997 135.264 67.8561 134.155 67.8561C132.135 67.8561 131.12 68.8392 131.12 70.7885V71.917C131.12 72.7634 131.294 73.3832 131.787 73.9475C132.267 74.5117 133.232 74.8495 134.584 74.8495C135.251 74.8495 136.004 74.7682 136.833 74.593V73.2336C135.991 73.4089 135.256 73.4901 134.639 73.4901C133.355 73.4901 133.032 72.9515 133.02 71.9854H137.1V70.6816H137.096ZM133.015 70.7201V70.4636C133.015 69.6557 133.296 69.2111 134.15 69.2111C135.005 69.2111 135.302 69.6557 135.302 70.4636V70.7201H133.015ZM141.912 65.2998V67.9886C141.419 67.8945 140.896 67.8561 140.348 67.8561C138.529 67.8561 137.644 68.7324 137.644 70.6816V72.0282C137.644 73.9133 138.405 74.8537 139.931 74.8537C140.629 74.8537 141.283 74.5844 141.912 74.033L142.461 74.7169H143.757V65.2998H141.912ZM140.684 73.3832C139.812 73.3832 139.549 72.9814 139.549 72.0239V70.6774C139.549 69.707 139.872 69.2111 140.777 69.2111C141.151 69.2111 141.525 69.2496 141.912 69.3308V72.9771C141.513 73.2464 141.096 73.379 140.684 73.379V73.3832ZM151.944 65.2998V68.0185C151.357 67.9116 150.741 67.8561 150.112 67.8561C148.199 67.8561 147.345 68.7837 147.345 70.6816V72.0282C147.345 73.9261 148.042 74.8537 149.657 74.8537C150.418 74.8537 151.183 74.5288 151.944 73.9005L152.157 74.7212H152.811V65.3041H151.94L151.944 65.2998ZM149.95 74.1227C148.654 74.1227 148.237 73.4089 148.237 72.0239V70.6774C148.237 69.2667 148.811 68.54 150.269 68.54C150.779 68.54 151.34 68.5956 151.94 68.7025V73.2892C151.285 73.8406 150.614 74.1227 149.946 74.1227H149.95ZM154.563 66.7532C154.937 66.7532 155.124 66.5651 155.124 66.2018C155.124 65.8384 154.937 65.6503 154.563 65.6503C154.188 65.6503 153.989 65.8384 153.989 66.2018C153.989 66.5651 154.176 66.7532 154.563 66.7532ZM155.005 74.7169V67.9929H154.133V74.7169H155.005ZM158.669 67.8561C157.049 67.8561 156.089 68.4332 156.089 69.5788V69.7669C156.089 70.75 156.73 71.3015 157.534 71.4895C158.686 71.7717 160.157 71.8144 160.157 72.7933V72.9258C160.157 73.6782 159.702 74.1612 158.324 74.1612C157.521 74.1612 156.747 74.08 155.982 73.9347V74.6186C156.718 74.7682 157.521 74.8495 158.405 74.8495C160.157 74.8495 161.041 74.1911 161.041 72.8574V72.6822C161.041 71.7674 160.412 71.2544 159.621 71.0834C158.444 70.8398 156.985 70.7885 156.985 69.7113V69.5788C156.985 68.8948 157.559 68.5443 158.724 68.5443C159.391 68.5443 160.089 68.6255 160.798 68.7751V68.0912C160.101 67.9416 159.396 67.8646 158.673 67.8646L158.669 67.8561ZM165.168 67.8561C164.407 67.8561 163.642 68.1809 162.881 68.8093L162.669 67.9886H162.014V77.675H162.886V74.687C163.472 74.7939 164.089 74.8495 164.718 74.8495C166.631 74.8495 167.485 73.9218 167.485 72.0239V70.6774C167.485 68.7794 166.788 67.8518 165.172 67.8518L165.168 67.8561ZM166.588 72.0282C166.588 73.4388 166.014 74.1655 164.556 74.1655C164.046 74.1655 163.485 74.1099 162.886 74.0031V69.4163C163.54 68.8649 164.212 68.5828 164.879 68.5828C166.176 68.5828 166.592 69.2966 166.592 70.6816V72.0282H166.588ZM169.423 74.7169V65.2998H168.552V74.7169H169.423ZM173.113 67.8561C172.322 67.8561 171.574 67.9373 170.877 68.0826V68.7666C171.506 68.617 172.229 68.5357 173.045 68.5357C174.341 68.5357 174.932 68.9376 174.932 70.1216V71.0493C174.265 70.8355 173.542 70.7244 172.764 70.7244C171.332 70.7244 170.397 71.3442 170.397 72.6736V72.8489C170.397 74.1826 171.119 74.8409 172.565 74.8409C173.355 74.8409 174.142 74.516 174.932 73.8876L175.145 74.7084H175.812V70.1216C175.812 68.4545 174.996 67.8475 173.109 67.8475L173.113 67.8561ZM172.994 71.3784C173.742 71.3784 174.384 71.4853 174.932 71.7161V73.3319C174.252 73.8705 173.555 74.1399 172.858 74.1399C171.799 74.1399 171.268 73.7081 171.268 72.8361V72.7036C171.268 71.8443 171.923 71.387 172.994 71.387V71.3784ZM181.487 67.9886L179.413 73.8278L177.206 67.9886H176.259L178.945 74.8751C178.72 75.4009 178.477 75.8155 178.21 76.0977C177.929 76.3798 177.419 76.7303 176.684 77.145L177.019 77.846C177.7 77.457 178.222 77.1193 178.571 76.8372C178.919 76.555 179.187 76.2473 179.374 75.9352C179.561 75.6274 179.761 75.1529 179.991 74.5502L182.426 67.9843H181.491L181.487 67.9886Z" fill="#FDC300"/>
<path fill-rule="evenodd" clip-rule="evenodd" d="M121.891 66.1768C119.596 66.1768 117.734 68.0662 117.734 70.3916C117.734 72.717 119.596 74.6064 121.891 74.6064C124.187 74.6064 126.048 72.717 126.048 70.3916C126.048 68.0662 124.187 66.1768 121.891 66.1768Z" fill="#FDC300"/>
<path fill-rule="evenodd" clip-rule="evenodd" d="M111.744 66.1768C109.449 66.1768 107.587 68.0662 107.587 70.3916C107.587 72.717 109.449 74.6064 111.744 74.6064C114.04 74.6064 115.901 72.717 115.901 70.3916C115.901 68.0662 114.04 66.1768 111.744 66.1768Z" fill="#FFE195"/>
<path fill-rule="evenodd" clip-rule="evenodd" d="M101.397 66.1768C99.1021 66.1768 97.2402 68.0662 97.2402 70.3916C97.2402 72.717 99.1021 74.6064 101.397 74.6064C103.693 74.6064 105.555 72.717 105.555 70.3916C105.555 68.0662 103.693 66.1768 101.397 66.1768Z" fill="#FFF1CD"/>
<path d="M184.565 18.0989C184.565 20.4841 182.703 22.3565 180.28 22.3565C177.857 22.3565 175.97 20.4841 175.97 18.0989C175.97 15.7136 177.883 13.8926 180.28 13.8926C182.677 13.8926 184.565 15.7649 184.565 18.0989ZM177.041 18.0989C177.041 19.9712 178.418 21.4588 180.306 21.4588C182.193 21.4588 183.494 19.9712 183.494 18.1245C183.494 16.2779 182.142 14.739 180.28 14.739C178.418 14.739 177.041 16.2522 177.041 18.0989ZM179.617 20.3046H178.648V16.0983C179.03 16.0214 179.566 15.9701 180.255 15.9701C181.045 15.9701 181.402 16.0983 181.708 16.2779C181.938 16.4574 182.116 16.7908 182.116 17.2012C182.116 17.6628 181.759 18.0219 181.249 18.1758V18.2271C181.657 18.381 181.887 18.6888 182.014 19.253C182.142 19.8942 182.218 20.1507 182.32 20.3046H181.275C181.147 20.1507 181.071 19.766 180.943 19.2787C180.867 18.817 180.612 18.6118 180.076 18.6118H179.617V20.3046ZM179.642 17.9193H180.101C180.637 17.9193 181.071 17.7398 181.071 17.3038C181.071 16.9191 180.79 16.6626 180.178 16.6626C179.923 16.6626 179.744 16.6882 179.642 16.7139V17.9193Z" fill="#575756"/>
</g>
<defs>
<clipPath id="clip0_2621_3291">
<rect width="195" height="93" fill="white"/>
</clipPath>
</defs>
</svg>
