<svg width="278" height="63" viewBox="0 0 278 63" fill="none" xmlns="http://www.w3.org/2000/svg">
<g clip-path="url(#clip0_2621_3225)">
<path d="M269.965 38.5439V46.7618H277.323V38.5439H269.965Z" fill="#75BF00"/>
<path d="M29.408 13.9819L35.3055 34.8839L37.2912 27.4501L41.5745 13.9775H51.5715L40.2079 46.9572H31.3297L25.8636 30.5648L20.4615 46.9572H11.5193L0.219727 13.9819H10.2168L14.5 27.4544L16.4857 34.8882L22.3832 13.9862H29.3995L29.408 13.9819Z" fill="#75BF00"/>
<path d="M58.0323 33.4887C58.28 35.1695 59.1298 36.5515 60.5774 37.6345C62.0251 38.7175 63.9511 39.259 66.3511 39.259C69.7887 39.259 72.4364 38.3969 74.2983 36.6728L79.3289 42.6466C76.267 45.8783 71.877 47.4898 66.1632 47.4898C60.4493 47.4898 56.465 45.9216 53.4629 42.7766C50.4608 39.6359 48.9619 35.3905 48.9619 30.0361C48.9619 24.9936 50.4309 20.9129 53.369 17.7938C56.307 14.6748 60.2614 13.1152 65.2279 13.1152C70.6514 13.1152 74.8022 14.8827 77.6805 18.422C80.5587 21.9612 81.5196 26.982 80.5673 33.4844H58.0237L58.0323 33.4887ZM72.5645 26.5228C72.4834 24.842 71.736 23.5467 70.3268 22.6413C68.9176 21.736 67.2222 21.2811 65.2365 21.2811C63.4557 21.2811 61.9226 21.7446 60.6415 22.676C59.3561 23.6031 58.4892 24.8897 58.0323 26.5228H72.5645Z" fill="#75BF00"/>
<path d="M32.192 2.62318C30.424 5.13142 28.7927 8.09019 27.7209 10.1609C27.1828 11.2006 25.7138 11.1962 25.1842 10.1522C24.1294 8.07719 22.5195 5.10543 20.7729 2.57986C20.1067 1.61382 20.7985 0.292554 21.9558 0.296886L26.491 0.314214L31.0262 0.331542C32.1834 0.335874 32.8624 1.6658 32.192 2.61885V2.62318Z" fill="#03246B"/>
<path d="M269.64 4.09187H270.451V1.11144H271.566V0.375H268.525V1.11144H269.64V4.08754V4.09187ZM275.247 4.0962H276.063V0.379332H275.136L274.064 1.80457L272.997 0.379332H272.061V4.09187H272.877V1.50132L273.97 2.95688H274.115L275.247 1.51432V4.10054V4.0962Z" fill="#03246B"/>
<path d="M82.4766 61.9589V14.7746H90.4879L91.0473 18.955C93.3661 15.7709 96.7611 14.1768 101.232 14.1768C105.703 14.1768 109.397 15.7363 112.194 18.8553C114.987 21.9744 116.388 26.0768 116.388 31.1669C116.388 36.2571 114.979 40.5328 112.165 43.6085C109.35 46.6842 105.665 48.2221 101.113 48.2221C97.0558 48.2221 93.8487 46.6756 91.4871 43.5782V61.9589H82.4851H82.4766ZM105.328 37.2404C106.694 35.6722 107.377 33.6448 107.377 31.1669C107.377 28.689 106.703 26.7223 105.357 25.1281C104.012 23.5339 102.18 22.7412 99.8614 22.7412C97.5426 22.7412 95.638 23.4256 94.0238 24.7989C92.4096 26.1721 91.6024 28.2948 91.6024 31.1713C91.6024 33.7835 92.4309 35.8368 94.0878 37.3444C95.7448 38.8476 97.6707 39.6014 99.8614 39.6014C102.052 39.6014 103.961 38.8173 105.328 37.2448V37.2404Z" fill="#03246B"/>
<path d="M142.835 14.7093H151.218V47.4897H143.147L142.651 43.3742C141.699 44.9684 140.324 46.1597 138.522 46.9568C136.72 47.7539 134.952 48.1741 133.214 48.2174C128.537 48.2608 124.728 46.7445 121.786 43.6731C118.848 40.5974 117.379 36.4084 117.379 31.0973C117.379 25.7862 118.899 21.5842 121.944 18.4911C124.989 15.3981 128.828 13.8905 133.461 13.9772C135.447 13.9772 137.258 14.3757 138.893 15.1728C140.529 15.9699 141.742 17.0746 142.527 18.4911L142.839 14.7093H142.835ZM128.614 24.7639C127.081 26.3364 126.317 28.4461 126.317 31.1016C126.317 33.7572 127.081 35.8582 128.614 37.4047C130.147 38.9512 132.069 39.7267 134.388 39.7267C136.707 39.7267 138.744 38.8863 140.256 37.2054C141.767 35.5246 142.523 33.6012 142.523 31.4309C142.523 28.9096 141.81 26.7739 140.379 25.0281C138.953 23.2823 136.954 22.4073 134.388 22.4073C132.069 22.4073 130.143 23.1914 128.614 24.7639Z" fill="#03246B"/>
<path d="M186.615 1.10742V47.4903H178.603L178.044 43.3099C175.725 46.494 172.33 48.0882 167.859 48.0882C163.388 48.0882 159.694 46.5286 156.897 43.4096C154.104 40.2905 152.703 36.1881 152.703 31.098C152.703 26.0079 154.112 21.7322 156.927 18.6564C159.741 15.5807 163.426 14.0428 167.978 14.0428C172.035 14.0428 175.242 15.5894 177.604 18.6868V1.10742H186.606H186.615ZM163.764 25.0288C162.397 26.6013 161.714 28.6244 161.714 31.1023C161.714 33.5802 162.388 35.547 163.734 37.1411C165.079 38.7353 166.911 39.5281 169.23 39.5281C171.548 39.5281 173.453 38.8436 175.067 37.4704C176.682 36.0971 177.489 33.9744 177.489 31.098C177.489 28.4901 176.66 26.4324 175.003 24.9249C173.346 23.4173 171.42 22.6679 169.23 22.6679C167.039 22.6679 165.13 23.452 163.764 25.0245V25.0288Z" fill="#03246B"/>
<path d="M198.846 1.10742V18.6911C201.207 15.5937 204.414 14.0472 208.471 14.0472C213.023 14.0472 216.709 15.585 219.523 18.6608C222.337 21.7365 223.746 25.8822 223.746 31.1023C223.746 36.3224 222.35 40.3035 219.553 43.4442C216.76 46.5849 213.104 48.1575 208.591 48.1575C204.077 48.1575 200.767 46.5416 198.406 43.3143L197.846 47.4947H189.835V1.10742H198.837H198.846ZM201.455 24.9292C199.798 26.4324 198.969 28.4901 198.969 31.1023C198.969 33.9788 199.776 36.1015 201.391 37.4747C203.005 38.848 204.952 39.5324 207.228 39.5324C209.505 39.5324 211.379 38.7353 212.724 37.1455C214.07 35.5513 214.744 33.5412 214.744 31.1066C214.744 28.672 214.061 26.6057 212.695 25.0332C211.328 23.465 209.509 22.6765 207.228 22.6765C204.948 22.6765 203.107 23.4303 201.455 24.9335V24.9292Z" fill="#03246B"/>
<path d="M228 43.4782C224.955 40.3158 223.435 36.2134 223.435 31.1666C223.435 26.1198 224.976 22.052 228.059 18.8246C231.143 15.5973 235.191 13.9814 240.2 13.9814C245.209 13.9814 249.318 15.5973 252.401 18.8246C255.484 22.0563 257.026 26.1674 257.026 31.1666C257.026 36.1657 255.505 40.3115 252.461 43.4782C249.416 46.6449 245.329 48.2217 240.196 48.2217C235.063 48.2217 231.036 46.6405 227.995 43.4782H228ZM246.008 37.2401C247.31 35.5809 247.964 33.5578 247.964 31.1666C247.964 28.7753 247.302 26.8519 245.978 25.1277C244.654 23.4036 242.728 22.5415 240.204 22.5415C237.681 22.5415 235.815 23.4036 234.491 25.1277C233.167 26.8519 232.505 28.8663 232.505 31.1666C232.505 33.4669 233.158 35.4683 234.461 37.1707C235.763 38.8732 237.681 39.7266 240.204 39.7266C242.728 39.7266 244.706 38.8949 246.012 37.2401H246.008Z" fill="#03246B"/>
<path d="M267.462 1.10742V47.4904H258.584V1.10742H267.462Z" fill="#03246B"/>
<path d="M101.868 58.797C102.133 58.9226 102.338 59.1176 102.487 59.3775C102.637 59.6374 102.709 59.932 102.709 60.2569C102.709 60.7334 102.534 61.1363 102.18 61.4655C101.825 61.7947 101.398 61.9594 100.886 61.9594H98.4561V55.8945H100.839C101.334 55.8945 101.744 56.0418 102.069 56.3407C102.393 56.6353 102.556 57.0079 102.556 57.4584C102.556 57.7226 102.492 57.9782 102.372 58.2252C102.252 58.4721 102.082 58.6627 101.868 58.8056V58.797ZM101.36 58.1602C101.509 58.0086 101.586 57.8223 101.586 57.597C101.586 57.3718 101.509 57.1855 101.36 57.0339C101.21 56.8822 101.018 56.8086 100.783 56.8086H99.4126V58.3854H100.783C101.018 58.3854 101.21 58.3118 101.36 58.1602ZM100.83 61.0063C101.087 61.0063 101.3 60.924 101.467 60.7637C101.633 60.6034 101.714 60.3955 101.714 60.1442C101.714 59.893 101.629 59.6937 101.462 59.5334C101.296 59.3731 101.082 59.2908 100.826 59.2908H99.4084V61.0063H100.826H100.83Z" fill="#75BF00"/>
<path d="M112.536 59.6323C112.536 59.7233 112.528 59.8273 112.515 59.9442H108.812C108.872 60.3211 109.026 60.62 109.273 60.841C109.525 61.0619 109.837 61.1702 110.209 61.1702C110.478 61.1702 110.721 61.1096 110.93 60.9883C111.14 60.867 111.31 60.698 111.43 60.4857H112.421C112.241 60.9796 111.951 61.3651 111.558 61.6511C111.165 61.9326 110.713 62.0756 110.204 62.0756C109.538 62.0756 108.983 61.8417 108.535 61.3695C108.086 60.9016 107.864 60.3168 107.864 59.6193C107.864 59.1601 107.967 58.7443 108.167 58.3674C108.372 57.9905 108.65 57.7003 109.009 57.4837C109.367 57.2714 109.765 57.1631 110.204 57.1631C110.644 57.1631 111.063 57.2757 111.422 57.4966C111.78 57.7176 112.054 58.0165 112.246 58.389C112.438 58.7616 112.532 59.1775 112.532 59.6323H112.536ZM110.209 58.0338C109.859 58.0338 109.564 58.1335 109.316 58.3371C109.073 58.5407 108.911 58.8179 108.834 59.1645H111.592C111.507 58.8093 111.34 58.532 111.097 58.3327C110.854 58.1335 110.555 58.0338 110.209 58.0338Z" fill="#75BF00"/>
<path d="M119.898 61.088H120.419V61.9587H119.723C119.223 61.9587 118.83 61.8114 118.54 61.5125C118.25 61.2136 118.109 60.8064 118.109 60.2909V58.1032H117.293V57.9169L118.882 56.1885H119.044V57.2801H120.402V58.1032H119.052V60.2129C119.052 60.4902 119.125 60.7068 119.274 60.8584C119.424 61.01 119.633 61.0837 119.906 61.0837L119.898 61.088Z" fill="#75BF00"/>
<path d="M127.748 61.088H128.269V61.9587H127.572C127.073 61.9587 126.68 61.8114 126.39 61.5125C126.099 61.2136 125.958 60.8064 125.958 60.2909V58.1032H125.143V57.9169L126.731 56.1885H126.893V57.2801H128.251V58.1032H126.902V60.2129C126.902 60.4902 126.975 60.7068 127.124 60.8584C127.274 61.01 127.483 61.0837 127.756 61.0837L127.748 61.088Z" fill="#75BF00"/>
<path d="M137.847 59.6323C137.847 59.7233 137.838 59.8273 137.825 59.9442H134.123C134.183 60.3211 134.336 60.62 134.584 60.841C134.836 61.0619 135.148 61.1702 135.519 61.1702C135.788 61.1702 136.032 61.1096 136.241 60.9883C136.45 60.867 136.621 60.698 136.741 60.4857H137.731C137.552 60.9796 137.262 61.3651 136.869 61.6511C136.476 61.9326 136.023 62.0756 135.515 62.0756C134.849 62.0756 134.294 61.8417 133.845 61.3695C133.397 60.9016 133.175 60.3168 133.175 59.6193C133.175 59.1601 133.277 58.7443 133.478 58.3674C133.683 57.9905 133.961 57.7003 134.319 57.4837C134.678 57.2714 135.075 57.1631 135.515 57.1631C135.955 57.1631 136.373 57.2757 136.732 57.4966C137.091 57.7176 137.364 58.0165 137.556 58.389C137.748 58.7616 137.842 59.1775 137.842 59.6323H137.847ZM135.519 58.0338C135.169 58.0338 134.874 58.1335 134.627 58.3371C134.383 58.5407 134.221 58.8179 134.144 59.1645H136.903C136.817 58.8093 136.651 58.532 136.408 58.3327C136.164 58.1335 135.865 58.0338 135.519 58.0338Z" fill="#75BF00"/>
<path d="M145.422 57.2539H145.828V58.1636H145.332C144.948 58.1636 144.658 58.2719 144.461 58.4929C144.265 58.7138 144.167 59.0344 144.167 59.4632V61.9585H143.231V57.2799H143.868L144.026 57.9167C144.35 57.4748 144.816 57.2539 145.422 57.2539Z" fill="#75BF00"/>
<path d="M160.911 55.8896V56.821H159.181V61.9588H158.212V56.821H156.482V55.8896H160.915H160.911Z" fill="#75BF00"/>
<path d="M168.522 57.1717C169.051 57.1717 169.474 57.3493 169.781 57.7045C170.089 58.0598 170.247 58.5363 170.247 59.1428V61.9586H169.312V59.3377C169.312 58.9132 169.222 58.5883 169.047 58.3673C168.872 58.1464 168.611 58.0381 168.265 58.0381C167.919 58.0381 167.616 58.1724 167.386 58.4367C167.155 58.7009 167.04 59.0431 167.04 59.4547V61.9586H166.104V55.6035H167.04V57.8128C167.219 57.6092 167.437 57.4533 167.693 57.3407C167.949 57.228 168.227 57.1717 168.526 57.1717H168.522Z" fill="#75BF00"/>
<path d="M179.731 57.2757H180.453V61.9543H179.697L179.607 61.3868C179.398 61.6034 179.15 61.7724 178.868 61.8936C178.586 62.0149 178.279 62.0756 177.954 62.0756C177.51 62.0756 177.105 61.9673 176.742 61.755C176.379 61.5428 176.093 61.2482 175.888 60.8713C175.683 60.4944 175.58 60.0785 175.58 59.615C175.58 59.1515 175.683 58.7356 175.888 58.3587C176.093 57.9862 176.379 57.6916 176.742 57.4793C177.105 57.2671 177.51 57.1631 177.954 57.1631C178.283 57.1631 178.591 57.2237 178.877 57.345C179.163 57.4663 179.411 57.6396 179.62 57.8605L179.731 57.2714V57.2757ZM176.955 60.711C177.237 61.0013 177.596 61.1485 178.023 61.1485C178.45 61.1485 178.809 61.0013 179.09 60.711C179.372 60.4208 179.513 60.0525 179.513 59.615C179.513 59.1775 179.372 58.8092 179.09 58.519C178.809 58.2288 178.454 58.0815 178.023 58.0815C177.591 58.0815 177.237 58.2288 176.955 58.519C176.673 58.8092 176.532 59.1775 176.532 59.6107C176.532 60.0439 176.673 60.4164 176.955 60.7067V60.711Z" fill="#75BF00"/>
<path d="M188.588 57.1723C189.118 57.1723 189.536 57.3542 189.852 57.7181C190.164 58.082 190.322 58.5542 190.322 59.139V61.9549H189.387V59.334C189.387 58.9094 189.297 58.5845 189.122 58.3636C188.947 58.1427 188.682 58.0344 188.341 58.0344C187.999 58.0344 187.691 58.1687 187.461 58.4329C187.23 58.7015 187.115 59.0394 187.115 59.4509V61.9549H186.18V57.2763H186.833L187.017 57.9261C187.192 57.6878 187.418 57.5015 187.687 57.3672C187.96 57.233 188.259 57.168 188.588 57.168V57.1723Z" fill="#75BF00"/>
<path d="M205.998 56.8254H203.56V58.5408H205.776V59.4549H203.56V61.9545H202.586V55.8896H205.998V56.8254Z" fill="#75BF00"/>
<path d="M214.633 61.7501C214.261 61.9624 213.847 62.0707 213.386 62.0707C212.924 62.0707 212.51 61.9624 212.139 61.7501C211.767 61.5379 211.477 61.2433 211.263 60.8707C211.05 60.4982 210.947 60.078 210.947 59.6145C210.947 59.1509 211.054 58.7307 211.263 58.3538C211.473 57.977 211.767 57.6867 212.139 57.4744C212.51 57.2622 212.924 57.1582 213.386 57.1582C213.847 57.1582 214.261 57.2622 214.633 57.4744C215.004 57.6867 215.295 57.9813 215.508 58.3538C215.722 58.7307 215.824 59.1466 215.824 59.6101C215.824 60.0737 215.717 60.4895 215.508 60.8664C215.295 61.239 215.004 61.5335 214.633 61.7458V61.7501ZM212.322 60.7191C212.6 61.005 212.959 61.1523 213.39 61.1523C213.821 61.1523 214.176 61.0094 214.458 60.7191C214.739 60.4289 214.876 60.065 214.876 59.6145C214.876 59.1639 214.735 58.8 214.458 58.5098C214.18 58.2196 213.821 58.0766 213.39 58.0766C212.959 58.0766 212.604 58.2196 212.322 58.5098C212.04 58.8 211.904 59.1639 211.904 59.6145C211.904 60.065 212.045 60.4289 212.322 60.7191Z" fill="#75BF00"/>
<path d="M224.561 61.7501C224.19 61.9624 223.776 62.0707 223.314 62.0707C222.853 62.0707 222.439 61.9624 222.067 61.7501C221.696 61.5379 221.406 61.2433 221.192 60.8707C220.978 60.4982 220.876 60.078 220.876 59.6145C220.876 59.1509 220.983 58.7307 221.192 58.3538C221.401 57.977 221.696 57.6867 222.067 57.4744C222.439 57.2622 222.853 57.1582 223.314 57.1582C223.776 57.1582 224.19 57.2622 224.561 57.4744C224.933 57.6867 225.223 57.9813 225.437 58.3538C225.65 58.7307 225.753 59.1466 225.753 59.6101C225.753 60.0737 225.646 60.4895 225.437 60.8664C225.223 61.239 224.933 61.5335 224.561 61.7458V61.7501ZM222.251 60.7191C222.529 61.005 222.887 61.1523 223.319 61.1523C223.75 61.1523 224.104 61.0094 224.386 60.7191C224.668 60.4289 224.805 60.065 224.805 59.6145C224.805 59.1639 224.664 58.8 224.386 58.5098C224.109 58.2196 223.75 58.0766 223.319 58.0766C222.887 58.0766 222.533 58.2196 222.251 58.5098C221.969 58.8 221.833 59.1639 221.833 59.6145C221.833 60.065 221.973 60.4289 222.251 60.7191Z" fill="#75BF00"/>
<path d="M233.12 61.088H233.641V61.9587H232.944C232.445 61.9587 232.048 61.8114 231.762 61.5125C231.475 61.2136 231.33 60.8064 231.33 60.2909V58.1032H230.515V57.9169L232.103 56.1885H232.266V57.2801H233.623V58.1032H232.274V60.2129C232.274 60.4902 232.347 60.7068 232.496 60.8584C232.641 61.01 232.855 61.0837 233.128 61.0837L233.12 61.088Z" fill="#75BF00"/>
<path d="M241.379 57.1626C242.067 57.1626 242.635 57.3965 243.079 57.8601C243.523 58.3236 243.749 58.9084 243.749 59.6189C243.749 60.3293 243.527 60.9055 243.079 61.3733C242.63 61.8412 242.067 62.0751 241.379 62.0751C240.739 62.0751 240.201 61.8585 239.765 61.4297L239.645 61.9625H238.937V55.6074H239.872V57.7128C240.295 57.3489 240.798 57.1669 241.375 57.1669L241.379 57.1626ZM240.235 60.7062C240.521 61.0008 240.875 61.1481 241.307 61.1481C241.738 61.1481 242.092 61.0051 242.374 60.7105C242.656 60.4203 242.797 60.0564 242.797 59.6145C242.797 59.1727 242.656 58.8088 242.374 58.5185C242.092 58.2283 241.738 58.081 241.307 58.081C240.875 58.081 240.521 58.2283 240.235 58.5229C239.949 58.8174 239.808 59.1813 239.808 59.6189C239.808 60.0564 239.949 60.416 240.235 60.7105V60.7062Z" fill="#75BF00"/>
<path d="M252.956 57.2757H253.677V61.9543H252.921L252.832 61.3868C252.622 61.6034 252.375 61.7724 252.093 61.8936C251.811 62.0149 251.504 62.0756 251.179 62.0756C250.735 62.0756 250.329 61.9673 249.966 61.755C249.603 61.5428 249.317 61.2482 249.112 60.8713C248.907 60.4944 248.805 60.0785 248.805 59.615C248.805 59.1515 248.907 58.7356 249.112 58.3587C249.317 57.9862 249.603 57.6916 249.966 57.4793C250.329 57.2671 250.735 57.1631 251.179 57.1631C251.508 57.1631 251.815 57.2237 252.101 57.345C252.388 57.4663 252.635 57.6396 252.845 57.8605L252.956 57.2714V57.2757ZM250.18 60.711C250.462 61.0013 250.82 61.1485 251.247 61.1485C251.674 61.1485 252.033 61.0013 252.315 60.711C252.597 60.4208 252.738 60.0525 252.738 59.615C252.738 59.1775 252.597 58.8092 252.315 58.519C252.033 58.2288 251.679 58.0815 251.247 58.0815C250.816 58.0815 250.462 58.2288 250.18 58.519C249.898 58.8092 249.757 59.1775 249.757 59.6107C249.757 60.0439 249.898 60.4164 250.18 60.7067V60.711Z" fill="#75BF00"/>
<path d="M259.404 61.9586V55.6035H260.34V61.9586H259.404Z" fill="#75BF00"/>
<path d="M266.062 61.9586V55.6035H266.997V61.9586H266.062Z" fill="#75BF00"/>
</g>
<defs>
<clipPath id="clip0_2621_3225">
<rect width="277.103" height="61.7746" fill="white" transform="translate(0.219727 0.296875)"/>
</clipPath>
</defs>
</svg>
