<svg width="278" height="79" viewBox="0 0 278 79" fill="none" xmlns="http://www.w3.org/2000/svg">
<path d="M22.2879 45.2654H18.3021C16.5628 45.2654 15.0311 45.4253 13.8023 45.827C12.679 46.1469 11.6545 46.6303 10.9397 47.2736C10.2249 47.9169 9.71436 48.6419 9.40462 49.4452C9.20039 50.3302 8.99617 51.1335 8.99617 52.1001V52.8251C8.99617 53.9518 9.20039 54.915 9.71096 55.64C10.1194 56.4433 10.7321 57.0867 11.4503 57.57C12.063 58.0533 12.8833 58.3733 13.7002 58.6149C14.5171 58.8566 15.2353 58.9383 16.0522 58.9383C16.6649 58.9383 17.3797 58.8566 18.0979 58.6966C18.9148 58.455 19.5308 58.2133 20.1435 57.7334C20.7562 57.3317 21.2668 56.7667 21.6786 56.1234C22.0871 55.4801 22.2913 54.6768 22.2913 53.7101V45.2654H22.2879ZM2.24989 29.0192C2.04567 28.6958 2.04567 28.3758 2.04567 27.9742C2.14778 27.6508 2.45412 27.3309 3.16891 27.0075C3.8837 26.6059 4.70401 26.1226 5.52092 25.7209C6.33782 25.3193 7.26024 24.9176 8.28138 24.5943C9.30251 24.2709 10.4292 24.0326 11.7566 23.8693C12.982 23.6276 14.415 23.5459 16.0522 23.5459C18.2 23.5459 20.1401 23.7876 21.9816 24.3492C23.823 24.9108 25.4568 25.7175 26.7877 26.7625C28.2207 27.8074 29.3439 29.0158 30.0587 30.4624C30.8756 31.8307 31.2841 33.4373 31.2841 35.1255V54.0233C31.2841 55.4699 31.0798 56.7565 30.5693 57.8831C29.9566 59.0098 29.3439 59.973 28.4215 60.7797C27.6046 61.6647 26.5801 62.308 25.5589 62.8697C24.4357 63.4313 23.309 63.9146 22.1858 64.238C21.0625 64.6396 19.9359 64.8813 18.8126 64.963C17.7915 65.123 16.767 65.2046 15.9501 65.2046C14.2107 65.2046 12.3727 64.963 10.5313 64.5613C8.58772 64.078 6.85179 63.3564 5.31669 62.3897C3.78159 61.3448 2.45412 60.1398 1.5351 58.6115C0.51397 57.0016 0 55.1533 0 52.9817V52.0967C0 50.0851 0.408453 48.3968 1.22536 46.8685C2.04226 45.3402 3.0668 44.1353 4.49638 43.0903C5.92937 42.1237 7.56318 41.3204 9.40462 40.8371C11.3482 40.3537 13.3904 40.112 15.5382 40.112H22.2845V35.6906C22.2845 35.0472 22.1824 34.3222 21.876 33.6006C21.5697 32.8756 21.1612 32.154 20.5486 31.589C19.9359 30.9457 19.1156 30.3841 18.1966 29.979C17.2775 29.5774 16.0488 29.3357 14.7213 29.3357C12.5735 29.3357 10.8376 29.5774 9.50673 30.139C8.17926 30.7006 7.05261 31.2656 6.03148 31.909C5.72514 32.1506 5.31669 32.2323 4.90824 32.3106C4.49979 32.3106 4.19345 32.1506 3.88711 31.8273L2.24989 29.0124V29.0192Z" fill="#0A6324"/>
<path d="M72.2442 40.7632H84.9232V34.65C84.9232 34.0067 84.8211 33.3634 84.5148 32.7201C84.2085 32.1584 83.8 31.5934 83.1873 31.1918C82.6768 30.7084 81.962 30.3068 81.2438 30.0651C80.4269 29.8235 79.6066 29.6635 78.7896 29.6635C77.7685 29.6635 76.9482 29.8235 76.1313 30.0651C75.4165 30.3068 74.6983 30.7084 74.0856 31.1918C73.5751 31.5934 73.0645 32.155 72.7582 32.7201C72.4518 33.3634 72.2476 34.0067 72.2476 34.65V40.7632H72.2442ZM63.248 34.65C63.248 33.1217 63.6565 31.6751 64.4734 30.3068C65.2903 28.9385 66.3148 27.8152 67.7444 26.7703C69.0719 25.8036 70.7091 25.0003 72.6527 24.4387C74.4941 23.7954 76.4342 23.5537 78.582 23.5537C80.7298 23.5537 82.6733 23.7954 84.4093 24.4387C86.2507 25.0003 87.7824 25.807 89.1133 26.7703C90.4408 27.8152 91.4653 28.9419 92.1801 30.3068C92.8949 31.6751 93.2012 33.1217 93.2012 34.65V44.5414C93.2012 44.8647 93.0991 45.1847 92.7928 45.4263C92.4864 45.668 92.078 45.7497 91.6695 45.7497H72.2442V54.1128C72.2442 54.7561 72.4484 55.3994 72.7548 56.0427C73.0611 56.6043 73.5717 57.1694 74.0822 57.571C74.6949 58.0543 75.4097 58.3743 76.1279 58.6976C76.9448 58.9393 77.7651 59.0993 78.7862 59.0993C79.7053 59.0993 80.5256 58.9393 81.2404 58.6976C82.0573 58.3743 82.6734 58.0543 83.1839 57.571C83.7966 57.0877 84.205 56.526 84.5114 55.961C84.8177 55.3177 84.9198 54.6744 84.9198 54.0311V52.6628C84.9198 52.3394 85.022 52.1011 85.3283 51.9378C85.5325 51.7778 85.8389 51.6961 86.2473 51.6961H91.9725C92.2788 51.6961 92.483 51.7778 92.7894 51.8561C92.9936 52.016 93.0957 52.2577 93.0957 52.741V54.1094C93.0957 55.6377 92.7894 57.0843 92.0746 58.4526C91.3598 59.8209 90.3352 60.9441 89.0078 61.9891C87.7824 62.9558 86.2473 63.7591 84.4059 64.3207C82.6665 64.964 80.7264 65.2057 78.5786 65.2057C76.4308 65.2057 74.4907 64.8823 72.6492 64.3207C70.7057 63.7591 69.0719 62.9524 67.741 61.9891C66.3114 60.9441 65.2869 59.7392 64.47 58.4526C63.6531 57.0843 63.2446 55.6377 63.2446 54.1094V34.65H63.248Z" fill="#0A6324"/>
<path d="M117.543 35.7733C117.543 35.0483 117.441 34.405 117.135 33.7617C116.829 33.2001 116.42 32.6351 115.91 32.1517C115.399 31.6684 114.684 31.2667 113.864 30.9468C113.047 30.7051 112.227 30.5451 111.206 30.5451C110.287 30.5451 109.364 30.7051 108.649 30.9468C107.833 31.1884 107.114 31.5901 106.604 31.9917C106.093 32.4751 105.583 33.0367 105.273 33.6017C104.967 34.245 104.762 34.8883 104.762 35.6133V63.9191C104.762 64.3207 104.66 64.6441 104.354 64.8858C104.15 65.1274 103.843 65.2091 103.435 65.2091H97.097C96.7907 65.2091 96.4843 65.1274 96.178 64.8858C95.8716 64.6441 95.7695 64.3242 95.7695 63.9191V35.6133C95.7695 34.0851 96.178 32.6385 96.8928 31.2701C97.6076 29.9018 98.7342 28.6969 100.062 27.6519C101.389 26.607 103.026 25.8037 104.868 25.1604C106.709 24.5987 108.752 24.2754 110.899 24.2754C113.456 24.2754 115.603 24.5953 117.543 25.1604C119.487 25.8037 121.121 26.607 122.452 27.5736C123.779 28.6186 124.804 29.8269 125.518 31.1919C126.233 32.5602 126.54 34.0068 126.54 35.6133V64.0008C126.54 64.4024 126.438 64.6441 126.131 64.8858C125.825 65.1274 125.518 65.2091 125.212 65.2091H118.874C118.568 65.2091 118.262 65.1274 117.955 64.8858C117.649 64.6441 117.547 64.4024 117.547 64.0008V35.7733H117.543Z" fill="#0A6324"/>
<path d="M135 44.2959C135 45.1809 135.204 45.9841 135.612 46.7874C136.021 47.5907 136.633 48.234 137.352 48.8774C138.168 49.439 138.989 49.9223 140.01 50.2457C141.031 50.6473 142.056 50.8073 143.281 50.8073C144.404 50.8073 145.531 50.6473 146.45 50.2457C147.471 49.9223 148.393 49.4424 149.108 48.8774C149.823 48.234 150.436 47.5907 150.847 46.7874C151.256 45.9841 151.46 45.1774 151.46 44.2959V34.6462C151.46 33.7612 151.256 32.8762 150.847 32.0729C150.439 31.2696 149.826 30.5446 149.108 29.983C148.393 29.4214 147.471 28.9381 146.45 28.6147C145.531 28.2131 144.404 28.0531 143.281 28.0531C142.056 28.0531 141.031 28.2131 140.01 28.6147C138.989 28.9381 138.168 29.418 137.352 29.983C136.637 30.5446 136.021 31.2696 135.612 32.0729C135.204 32.8762 135 33.6829 135 34.5645V44.2959ZM158.618 77.2682C158.618 77.5882 158.516 77.8298 158.312 77.9932C158.108 78.2349 157.801 78.3166 157.291 78.3166H154.326C154.02 78.3166 153.713 78.2349 153.611 77.9932C153.407 77.7515 153.305 77.5099 153.305 77.2682V71.6384C153.305 69.7084 152.692 68.2618 151.361 67.5368C150.034 66.7335 148.09 66.4102 145.534 66.4102L139.401 66.3285H138.788C137.355 66.3285 136.027 66.0868 134.802 65.6035C133.577 65.1201 132.654 64.5585 131.837 63.7552C131.021 63.0302 130.404 62.2269 129.996 61.342C129.588 60.457 129.383 59.6537 129.383 58.7687V58.3671C129.383 56.6788 129.792 55.2322 130.507 53.9456C131.221 52.7406 131.94 51.6923 132.859 50.889C131.837 49.9223 131.119 48.8774 130.507 47.7541C129.996 46.5492 129.69 45.3408 129.69 43.8942V34.8878C129.69 33.3596 130.098 31.9912 130.813 30.7046C131.528 29.418 132.45 28.2913 133.675 27.3281C134.901 26.3614 136.334 25.6398 137.971 25.0748C139.608 24.5132 141.344 24.2715 143.186 24.2715C144.105 24.2715 144.925 24.3532 145.742 24.4315C146.661 24.5914 147.481 24.7514 148.196 24.9931H157.192C157.703 24.9931 158.111 25.0748 158.315 25.2348C158.52 25.3947 158.622 25.6364 158.622 25.8781V27.4064C158.622 27.648 158.52 27.808 158.315 28.0497C158.111 28.2913 157.703 28.373 157.192 28.373H154.023C154.942 29.258 155.558 30.2213 156.069 31.3479C156.579 32.4746 156.784 33.6795 156.784 34.9661V43.8125C156.784 45.4225 156.477 46.8691 155.763 48.1557C155.048 49.5241 154.023 50.6473 152.798 51.5323C151.675 52.4956 150.242 53.2206 148.604 53.7856C146.865 54.3472 145.129 54.5889 143.288 54.5889C140.731 54.5889 138.482 54.1055 136.439 53.2206C135.622 53.8639 135.108 54.5072 134.802 55.2322C134.598 55.9572 134.394 56.9205 134.394 57.9654V58.1254C134.394 58.687 134.598 59.252 134.802 59.8137C135.108 60.3753 135.517 60.8586 136.13 61.2603C136.64 61.6619 137.253 61.9853 137.971 62.2235C138.788 62.4652 139.608 62.6252 140.425 62.6252H146.559C148.4 62.6252 150.034 62.7852 151.569 63.0268C153.104 63.2685 154.33 63.7518 155.351 64.3951C156.372 65.0385 157.192 65.9234 157.805 66.9684C158.315 68.095 158.622 69.46 158.622 70.9882V77.2614L158.618 77.2682Z" fill="#6FA52C"/>
<path d="M159.997 35.5861C159.997 33.6426 160.44 31.9679 161.342 30.5349C162.227 29.1156 163.353 27.9344 164.698 27.0086C166.042 26.0692 167.509 25.3884 169.129 24.9459C170.75 24.5034 172.264 24.2754 173.697 24.2754C174.667 24.2754 175.607 24.289 176.526 24.3162C177.428 24.3435 178.214 24.3979 178.844 24.4762C179.814 24.609 180.294 24.9732 180.294 25.5756V27.2367C180.294 27.6792 180.107 27.9753 179.715 28.1353C179.341 28.2952 178.915 28.3497 178.435 28.2952C177.772 28.2408 177.142 28.2136 176.526 28.2136H174.599C173.132 28.2136 171.822 28.428 170.682 28.8433C169.541 29.2585 168.551 29.8337 167.768 30.5451C166.968 31.2701 166.352 32.1007 165.943 33.0231C165.518 33.9489 165.314 34.9258 165.314 35.9435V63.9021C165.314 64.3582 165.144 64.6781 164.786 64.8926C164.446 65.0934 164.139 65.2023 163.867 65.2023H161.192C160.919 65.2023 160.664 65.107 160.392 64.9062C160.137 64.7054 160 64.4229 160 64.0621V35.5827L159.997 35.5861Z" fill="#6FA52C"/>
<path d="M201.953 44.3781H196.432C194.182 44.3781 192.239 44.6197 190.707 45.1031C189.274 45.5864 188.049 46.2297 187.13 47.033C186.211 47.758 185.493 48.7213 185.186 49.7662C184.778 50.8929 184.574 51.9378 184.574 53.1428V54.1877C184.574 55.6343 184.88 56.921 185.493 57.8876C186.105 58.9326 186.926 59.7359 187.845 60.3792C188.764 61.0225 189.788 61.4241 190.809 61.7475C191.83 61.9892 192.855 62.1491 193.672 62.1491C194.591 62.1491 195.411 61.9892 196.432 61.8292C197.351 61.5875 198.274 61.1859 199.091 60.6243C199.907 60.0626 200.626 59.4193 201.136 58.5343C201.647 57.6494 201.953 56.6044 201.953 55.3178V44.3815V44.3781ZM181.711 29.5002C181.609 29.2585 181.507 28.9386 181.609 28.6969C181.609 28.3735 181.915 28.1353 182.426 27.8119C182.936 27.4103 183.651 27.0086 184.267 26.607C184.982 26.2053 185.802 25.8037 186.619 25.4803C187.538 25.0787 188.563 24.837 189.686 24.5953C190.809 24.3537 192.14 24.2754 193.672 24.2754C195.82 24.2754 197.658 24.5953 199.397 25.1604C201.034 25.722 202.464 26.5287 203.692 27.492C204.816 28.5369 205.738 29.6636 206.351 30.9502C206.963 32.2368 207.27 33.6051 207.27 34.97V55.556C207.27 57.486 206.759 59.0926 205.837 60.4609C204.918 61.7475 203.689 62.7925 202.362 63.6774C200.929 64.4807 199.499 65.0458 197.964 65.3657C196.429 65.7674 194.999 65.9273 193.873 65.9273C192.235 65.9273 190.602 65.6857 188.862 65.284C187.123 64.8007 185.591 64.1574 184.158 63.1941C182.729 62.2308 181.602 61.0225 180.683 59.5759C179.764 58.1293 179.25 56.3593 179.25 54.2694V53.2245C179.25 51.3762 179.658 49.6845 180.271 48.1597C180.986 46.6314 182.01 45.3447 183.338 44.2998C184.665 43.2548 186.2 42.3698 188.042 41.8082C189.985 41.2466 192.028 41.0049 194.278 41.0049H201.946V34.9734C201.946 34.3301 201.844 33.6051 201.436 32.7201C201.129 31.9169 200.619 31.1919 199.901 30.4669C199.186 29.6636 198.263 29.0985 197.14 28.6186C196.017 28.1353 194.584 27.8936 192.947 27.8936C191.824 27.8936 190.799 27.9753 189.982 28.1353C189.165 28.2952 188.447 28.5369 187.732 28.8603C187.12 29.1019 186.507 29.4219 185.993 29.8235C185.482 30.1469 184.972 30.5485 184.458 30.9502C184.151 31.1102 183.743 31.2735 183.437 31.2735C183.028 31.2735 182.722 31.1136 182.518 30.8719L181.701 29.5036L181.711 29.5002Z" fill="#6FA52C"/>
<path d="M209.535 54.4299C209.535 53.7049 210.046 53.3033 211.07 53.3033H213.422C213.831 53.3033 214.137 53.3849 214.341 53.6266C214.546 53.8683 214.648 54.1099 214.648 54.4299V55.7982C214.648 56.6832 214.852 57.5682 215.26 58.2898C215.669 59.0931 216.281 59.7364 217 60.3014C217.714 60.863 218.637 61.3464 219.658 61.6697C220.679 61.9897 221.806 62.1531 223.031 62.1531C224.154 62.1531 225.179 61.9931 226.2 61.5914C227.221 61.2715 228.041 60.7881 228.756 60.1448C229.471 59.5832 230.084 58.8582 230.496 58.0549C230.904 57.2516 231.108 56.4449 231.108 55.4817C231.108 54.5967 230.904 53.7934 230.393 52.9901C229.883 52.2651 229.168 51.4618 228.144 50.6585C227.225 49.8552 225.996 49.0485 224.464 48.2452C223.031 47.3603 221.397 46.397 219.454 45.3486C218.228 44.7053 217.102 44.062 215.979 43.337C214.753 42.612 213.729 41.8904 212.912 41.0054C211.993 40.1204 211.274 39.2355 210.764 38.1088C210.253 37.0639 209.947 35.8555 209.947 34.4906C209.947 33.044 210.253 31.7574 210.866 30.4708C211.581 29.2658 212.401 28.1392 213.524 27.2542C214.75 26.2875 216.081 25.5659 217.616 25.0826C219.253 24.521 220.989 24.2793 222.83 24.2793C224.774 24.2793 226.51 24.521 228.147 25.0826C229.784 25.5659 231.214 26.2875 232.34 27.2542C233.464 28.1392 234.386 29.1841 235.101 30.4708C235.714 31.6757 236.02 33.044 236.02 34.4906V35.9372C236.02 36.4988 235.611 36.8222 234.689 36.8222H232.235C231.418 36.8222 231.01 36.5022 231.01 35.8589V34.4123C231.01 33.5273 230.805 32.7241 230.397 31.9208C229.988 31.1175 229.376 30.4742 228.658 29.8308C228.045 29.2692 227.122 28.8676 226.101 28.4625C225.182 28.1392 224.056 27.9792 222.932 27.9792C221.809 27.9792 220.785 28.1392 219.866 28.4625C218.844 28.8642 218.024 29.2658 217.411 29.9091C216.697 30.4708 216.186 31.1958 215.876 31.999C215.468 32.8023 215.264 33.609 215.264 34.4906C215.264 35.4539 215.468 36.1789 215.672 36.8222C215.979 37.5472 216.489 38.1088 217.207 38.6704C217.82 39.3138 218.742 39.8754 219.866 40.4404C220.989 41.0837 222.32 41.8087 223.851 42.612C225.284 43.337 226.816 44.1403 228.249 45.0253C229.784 45.8286 231.214 46.7952 232.34 47.7585C233.566 48.8035 234.59 49.9301 235.407 51.2167C236.122 52.5034 236.53 53.8717 236.53 55.4783C236.53 56.9249 236.224 58.2932 235.611 59.4981C234.897 60.7847 233.974 61.9114 232.851 62.8747C231.626 63.7596 230.193 64.5629 228.555 65.1245C226.918 65.6862 225.182 65.9278 223.239 65.9278C220.887 65.9278 218.943 65.6862 217.207 65.1245C215.57 64.5629 214.14 63.8379 212.912 62.8747C211.788 61.9897 210.968 60.863 210.355 59.6581C209.845 58.3715 209.539 57.0848 209.539 55.7165V54.4299H209.535Z" fill="#6FA52C"/>
<path d="M238.46 54.4299C238.46 53.7049 238.971 53.3033 239.995 53.3033H242.347C242.756 53.3033 243.062 53.3849 243.266 53.6266C243.47 53.8683 243.572 54.1099 243.572 54.4299V55.7982C243.572 56.6832 243.777 57.5682 244.185 58.2898C244.594 59.0931 245.206 59.7364 245.924 60.3014C246.639 60.863 247.562 61.3464 248.583 61.6697C249.604 61.9897 250.731 62.1531 251.956 62.1531C253.079 62.1531 254.104 61.9931 255.125 61.5914C256.146 61.2715 256.966 60.7881 257.681 60.1448C258.396 59.5832 259.012 58.8582 259.42 58.0549C259.829 57.2516 260.033 56.4449 260.033 55.4817C260.033 54.5967 259.829 53.7934 259.318 52.9901C258.808 52.2651 258.093 51.4618 257.068 50.6585C256.149 49.8552 254.921 49.0485 253.389 48.2452C251.956 47.3603 250.322 46.397 248.379 45.3486C247.153 44.7053 246.027 44.062 244.903 43.337C243.678 42.612 242.653 41.8904 241.836 41.0054C240.917 40.1204 240.199 39.2355 239.689 38.1088C239.178 37.0639 238.872 35.8555 238.872 34.4906C238.872 33.044 239.178 31.7574 239.791 30.4708C240.506 29.2658 241.326 28.1392 242.449 27.2542C243.675 26.2875 245.005 25.5659 246.537 25.0826C248.174 24.521 249.91 24.2793 251.752 24.2793C253.695 24.2793 255.431 24.521 257.068 25.0826C258.706 25.5659 260.135 26.2875 261.262 27.2542C262.385 28.1392 263.307 29.1841 264.022 30.4708C264.635 31.6757 264.941 33.044 264.941 34.4906V35.9372C264.941 36.4988 264.533 36.8222 263.61 36.8222H261.156C260.339 36.8222 259.931 36.5022 259.931 35.8589V34.4123C259.931 33.5273 259.727 32.7241 259.318 31.9208C258.91 31.1175 258.297 30.4742 257.579 29.8308C256.966 29.2692 256.044 28.8676 255.023 28.4625C254.104 28.1392 252.977 27.9792 251.854 27.9792C250.731 27.9792 249.706 28.1392 248.787 28.4625C247.766 28.8642 246.946 29.2658 246.333 29.9091C245.618 30.4708 245.108 31.1958 244.798 31.999C244.389 32.8023 244.185 33.609 244.185 34.4906C244.185 35.4539 244.389 36.1789 244.594 36.8222C244.9 37.5472 245.41 38.1088 246.129 38.6704C246.741 39.3138 247.664 39.8754 248.787 40.4404C249.91 41.0837 251.241 41.8087 252.776 42.612C254.206 43.337 255.741 44.1403 257.174 45.0253C258.709 45.8286 260.139 46.7952 261.262 47.7585C262.487 48.8035 263.512 49.9301 264.329 51.2167C265.043 52.5034 265.452 53.8717 265.452 55.4783C265.452 56.9249 265.146 58.2932 264.533 59.4981C263.818 60.7847 262.896 61.9114 261.772 62.8747C260.547 63.7596 259.114 64.5629 257.477 65.1245C255.84 65.6862 254.104 65.9278 252.16 65.9278C249.808 65.9278 247.865 65.6862 246.129 65.1245C244.491 64.5629 243.062 63.8379 241.833 62.8747C240.71 61.9897 239.89 60.863 239.277 59.6581C238.766 58.3715 238.46 57.0848 238.46 55.7165V54.4299Z" fill="#6FA52C"/>
<path d="M267.27 22.8096C267.27 22.7142 267.297 22.653 267.344 22.6223C267.399 22.5917 267.447 22.5781 267.491 22.5781H271.191C271.266 22.5781 271.337 22.5917 271.392 22.6223C271.449 22.653 271.477 22.7074 271.477 22.7789V23.0989C271.477 23.1874 271.446 23.2452 271.388 23.2691C271.327 23.2963 271.262 23.3099 271.191 23.3099H269.873V29.566C269.873 29.6171 269.856 29.6716 269.816 29.7226C269.775 29.7737 269.713 29.8009 269.625 29.8009H269.176C269.077 29.8009 269.012 29.7771 268.971 29.7226C268.931 29.6716 268.914 29.6171 268.914 29.566V23.3099H267.494C267.45 23.3099 267.402 23.2929 267.348 23.2589C267.3 23.2282 267.273 23.1704 267.273 23.0989V22.813L267.27 22.8096ZM272.838 24.2732L272.865 24.5489L272.879 29.5354C272.879 29.5865 272.862 29.6477 272.824 29.709C272.79 29.7669 272.722 29.8009 272.627 29.8009H272.219C272.113 29.8009 272.045 29.7703 272.011 29.709C271.977 29.6443 271.957 29.5865 271.957 29.5354V22.8096C271.957 22.653 272.045 22.5747 272.219 22.5747H272.78C272.865 22.5747 272.93 22.5985 272.967 22.6496C273.008 22.6938 273.039 22.7449 273.053 22.7925L274.727 27.2515L274.782 27.5476L274.843 27.2617L276.538 22.7585C276.555 22.7177 276.579 22.6734 276.609 22.636C276.64 22.5951 276.701 22.5713 276.8 22.5713H277.355C277.443 22.5713 277.511 22.5917 277.552 22.6394C277.597 22.6836 277.62 22.7415 277.62 22.8062V29.532C277.62 29.5831 277.603 29.6443 277.566 29.7056C277.535 29.7635 277.467 29.7975 277.375 29.7975H276.957C276.865 29.7975 276.797 29.7669 276.766 29.7056C276.732 29.6409 276.712 29.5831 276.712 29.532L276.725 24.5455L276.739 24.2698L276.712 24.3923L275.163 28.5279C275.129 28.63 275.061 28.6811 274.965 28.6811H274.622C274.53 28.6811 274.462 28.63 274.424 28.5279L272.876 24.3923L272.835 24.2698L272.838 24.2732Z" fill="#6FA52C"/>
<path fill-rule="evenodd" clip-rule="evenodd" d="M45.4642 62.3039H39.3374C35.0317 27.531 31.764 22.1973 15.2319 20.4511C24.9837 18.6437 39.8412 13.6368 45.4642 62.3039Z" fill="#6FA52C"/>
<path fill-rule="evenodd" clip-rule="evenodd" d="M39.3325 62.3037C55.2349 2.9283 69.878 -3.13041 77.7339 1.04261C66.2393 -0.73756 53.9381 28.2013 45.5104 62.8245C43.4545 62.93 41.3884 62.7632 39.3325 62.3003" fill="#6FA52C"/>
<path fill-rule="evenodd" clip-rule="evenodd" d="M43.4252 42.9652C39.1705 24.8401 32.8463 19.1184 27.7202 18.5057C32.1792 17.488 39.6096 16.763 46.1448 34.9936C45.1918 37.6111 44.2932 40.2728 43.4252 42.9652Z" fill="#0A6324"/>
<path fill-rule="evenodd" clip-rule="evenodd" d="M47.1748 62.6771C62.0357 4.22754 76.2498 -3.86322 85.4434 4.52707C75.29 -1.09596 60.9294 24.2247 53.6386 60.9242C51.5214 61.8057 49.3634 62.3912 47.1748 62.6737" fill="#0A6324"/>
</svg>
