<svg width="269" height="73" viewBox="0 0 269 73" fill="none" xmlns="http://www.w3.org/2000/svg">
<g clip-path="url(#clip0_2621_3255)">
<mask id="mask0_2621_3255" style="mask-type:luminance" maskUnits="userSpaceOnUse" x="0" y="0" width="269" height="73">
<path d="M268.392 0.154297H0.113281V72.5188H268.392V0.154297Z" fill="white"/>
</mask>
<g mask="url(#mask0_2621_3255)">
<path d="M264.365 41.54H256.897V49.7112H264.365V41.54Z" fill="#C7234B"/>
<path d="M66.5975 29.8626C67.0786 28.256 67.993 26.9982 69.3453 26.0893C70.6975 25.1805 72.3141 24.7239 74.1908 24.7239C76.2841 24.7239 78.0741 25.1675 79.5606 26.0592C81.0429 26.9465 81.8317 28.2172 81.9184 29.8669H66.5975V29.8626ZM27.3829 17.565L21.1635 38.0596L19.0702 30.7715L14.5541 17.565H4.01367L15.928 49.905H25.3546L31.0495 33.8341L36.8095 49.905H46.1711L58.1504 17.565H47.61L43.0939 30.7715L41.0005 38.0596L34.7812 17.565H27.3829ZM90.3611 36.6942C91.3666 30.3192 90.3481 25.3958 87.3186 21.9241C84.2848 18.4523 79.9117 16.7207 74.1908 16.7207C68.9552 16.7207 64.7858 18.2498 61.687 21.3081C58.5881 24.3664 57.0365 28.3679 57.0365 33.3129C57.0365 38.5636 58.6185 42.7246 61.7823 45.8044C64.9462 48.8842 69.4103 50.4262 75.1702 50.4262C80.9302 50.4262 85.819 48.8411 89.0479 45.6751L83.743 39.817C81.7797 41.5099 78.9842 42.3541 75.3609 42.3541C72.8299 42.3541 70.8015 41.8243 69.2716 40.7604C67.746 39.6964 66.8489 38.3439 66.5888 36.6942H90.3525H90.3611Z" fill="#C7234B"/>
<path d="M217.518 29.8623C217.999 28.2557 218.914 26.9979 220.266 26.089C221.618 25.1802 223.235 24.7236 225.112 24.7236C227.205 24.7236 228.995 25.1672 230.481 26.0589C231.964 26.9462 232.752 28.2169 232.839 29.8666H217.518V29.8623ZM241.282 36.6939C242.287 30.3189 241.269 25.3955 238.239 21.9238C235.206 18.452 230.828 16.7204 225.112 16.7204C219.876 16.7204 215.707 18.2495 212.608 21.3078C209.509 24.3661 207.957 28.3677 207.957 33.3126C207.957 38.5633 209.539 42.7243 212.703 45.8041C215.867 48.8839 220.331 50.4259 226.091 50.4259C231.851 50.4259 236.74 48.8408 239.969 45.6748L234.664 39.8168C232.7 41.5096 229.905 42.3538 226.282 42.3538C223.751 42.3538 221.722 41.824 220.192 40.7601C218.667 39.6962 217.77 38.3436 217.51 36.6939H241.273H241.282ZM196.052 4.22461V21.4672C193.564 18.4305 190.183 16.9142 185.906 16.9142C181.103 16.9142 177.22 18.4218 174.251 21.437C171.283 24.4522 169.8 28.5184 169.8 33.6356C169.8 38.7528 171.274 42.6467 174.221 45.705C177.168 48.7633 181.021 50.2924 185.776 50.2924C190.53 50.2924 194.067 48.7288 196.511 45.6059L197.1 49.7066H205.548V4.22461H196.056H196.052ZM187.215 25.3697C189.529 25.3697 191.557 26.1063 193.304 27.5837C195.05 29.0568 195.922 31.077 195.922 33.6356C195.922 36.457 195.072 38.5375 193.369 39.8814C191.666 41.2253 189.616 41.8972 187.215 41.8972C184.813 41.8972 182.837 41.1176 181.42 39.554C180.003 37.9904 179.292 36.0176 179.292 33.6313C179.292 31.245 180.011 29.2162 181.45 27.6785C182.889 26.1407 184.809 25.3697 187.21 25.3697H187.215ZM149.478 25.1113C152.182 25.1113 154.289 25.9684 155.797 27.6828C157.301 29.3971 158.055 31.4905 158.055 33.963C158.055 36.0865 157.257 37.9775 155.667 39.6229C154.072 41.2727 152.013 42.0954 149.482 42.0954C146.951 42.0954 145.009 41.3373 143.393 39.8168C141.776 38.3006 140.97 36.2373 140.97 33.6356C140.97 31.0339 141.776 28.9621 143.393 27.42C145.009 25.878 147.038 25.1113 149.482 25.1113H149.478ZM158.055 21.2733C157.227 19.8864 155.949 18.8009 154.224 18.0213C152.499 17.2416 150.592 16.8496 148.494 16.8496C143.605 16.7635 139.557 18.2366 136.35 21.2733C133.143 24.3101 131.539 28.4323 131.539 33.6356C131.539 38.839 133.091 42.9526 136.19 45.9677C139.288 48.9829 143.302 50.469 148.234 50.4259C150.067 50.3828 151.931 49.9693 153.834 49.1897C155.732 48.41 157.184 47.2384 158.189 45.6748L158.714 49.7109H167.226V17.5647H158.389L158.059 21.2733H158.055ZM103.528 65.041V47.0188C106.016 50.0555 109.396 51.5717 113.674 51.5717C118.476 51.5717 122.36 50.0641 125.328 47.0489C128.297 44.0337 129.78 39.9675 129.78 34.8503C129.78 29.7331 128.306 25.8392 125.359 22.7809C122.412 19.7227 118.563 18.1935 113.804 18.1935C109.045 18.1935 105.513 19.7571 103.069 22.88L102.479 18.7794H94.0322V65.041H103.524H103.528ZM112.365 43.1119C110.051 43.1119 108.023 42.3754 106.276 40.8979C104.529 39.4248 103.658 37.4046 103.658 34.846C103.658 32.0247 104.508 29.9442 106.211 28.6003C107.914 27.2563 109.964 26.5844 112.365 26.5844C114.766 26.5844 116.743 27.364 118.16 28.9276C119.577 30.4912 120.288 32.464 120.288 34.8503C120.288 37.2366 119.568 39.2654 118.13 40.8032C116.691 42.3452 114.771 43.1119 112.37 43.1119H112.365ZM244.212 4.22461V49.7066H253.573V4.22461H244.212Z" fill="#0055A3"/>
<path d="M37.1863 7.21406C35.392 9.70805 33.7364 12.65 32.6486 14.709C32.1025 15.7427 30.6116 15.7384 30.0742 14.7003C29.0036 12.6371 27.3697 9.6822 25.5971 7.17098C24.921 6.21474 25.6231 4.90098 26.7976 4.90528L31.4004 4.92251L36.0031 4.93974C37.1777 4.94405 37.8668 6.26643 37.1863 7.21406Z" fill="#0055A3"/>
<path d="M251.813 58.7399L251.037 58.8347V60.2777H250.101V61.0228H251.037V63.7968C251.037 65.0158 251.527 65.6145 252.511 65.593C252.801 65.5844 253.105 65.5025 253.417 65.3389L253.191 64.6152C252.966 64.7444 252.745 64.8047 252.537 64.8047C252.043 64.8047 251.8 64.4688 251.8 63.7968V61.0228H253.256V60.2777H251.809V58.7356L251.813 58.7399ZM246.383 61.4277L246.829 60.8549C246.37 60.3853 245.776 60.1527 245.052 60.1527C244.731 60.1441 244.432 60.1915 244.159 60.2906C243.886 60.3897 243.652 60.5576 243.453 60.7989C243.253 61.0401 243.158 61.3373 243.158 61.6905C243.158 61.9575 243.21 62.1901 243.314 62.3754C243.418 62.5649 243.57 62.7113 243.765 62.8147C243.96 62.9224 244.151 63.0042 244.341 63.0602C244.532 63.1162 244.757 63.1636 245.022 63.1981C245.433 63.2541 245.745 63.3445 245.962 63.4651C246.179 63.5857 246.287 63.7753 246.279 64.038C246.274 64.3266 246.153 64.5377 245.914 64.6626C245.676 64.7918 245.407 64.8521 245.095 64.8521C244.376 64.8521 243.821 64.5851 243.431 64.0466L242.985 64.654C243.453 65.313 244.146 65.6404 245.074 65.6404C245.628 65.6404 246.092 65.5025 246.465 65.2312C246.838 64.9598 247.024 64.5721 247.033 64.0682C247.037 63.8184 246.998 63.603 246.911 63.4135C246.825 63.2239 246.721 63.0775 246.604 62.9741C246.487 62.8664 246.326 62.776 246.127 62.7027C245.923 62.6295 245.754 62.5778 245.611 62.5477C245.468 62.5175 245.286 62.4917 245.069 62.4615C244.302 62.3624 243.912 62.104 243.908 61.6862C243.903 61.4364 244.007 61.2468 244.224 61.1133C244.441 60.9798 244.723 60.9152 245.061 60.9238C245.602 60.9238 246.04 61.0918 246.374 61.432L246.383 61.4234V61.4277ZM239.153 62.5003H235.92C235.985 62.0135 236.167 61.6302 236.479 61.3545C236.787 61.0788 237.155 60.941 237.576 60.941C238.044 60.941 238.417 61.0788 238.703 61.3502C238.989 61.6216 239.136 62.0092 239.158 62.5132V62.5046L239.153 62.5003ZM239.617 64.6798L239.097 64.15C238.945 64.3568 238.729 64.5162 238.451 64.6325C238.17 64.7488 237.892 64.8091 237.615 64.8091C237.16 64.8091 236.778 64.6669 236.462 64.3783C236.146 64.0897 235.968 63.7107 235.924 63.2368H239.899C239.985 62.2375 239.808 61.4751 239.366 60.9496C238.919 60.4198 238.321 60.1571 237.563 60.1571C236.856 60.1571 236.276 60.4112 235.82 60.9238C235.365 61.432 235.14 62.0868 235.14 62.8793C235.14 63.6719 235.365 64.374 235.82 64.8694C236.276 65.369 236.865 65.6188 237.597 65.6188C237.983 65.6188 238.356 65.5413 238.724 65.3776C239.088 65.2183 239.387 64.9857 239.613 64.6798H239.621H239.617ZM227.378 62.1212H229.488C229.9 62.1212 230.26 62.2332 230.576 62.4572C230.893 62.6812 231.053 63.0086 231.057 63.4393C231.057 63.6805 231.01 63.883 230.91 64.0509C230.81 64.2189 230.68 64.3395 230.507 64.4214C230.338 64.5032 230.164 64.5592 229.995 64.598C229.826 64.6325 229.644 64.6497 229.445 64.6497H227.373V62.1212H227.378ZM227.378 58.9251H229.449C229.87 58.9251 230.212 59.0328 230.472 59.2482C230.732 59.4636 230.858 59.7737 230.858 60.1786C230.858 60.5533 230.732 60.8333 230.485 61.0142C230.238 61.1951 229.904 61.2856 229.488 61.2856H227.378V58.9251ZM226.554 58.0852V65.5198H229.449C229.783 65.5198 230.087 65.4853 230.364 65.4207C230.641 65.3561 230.893 65.2441 231.131 65.0977C231.369 64.9469 231.551 64.7358 231.686 64.4602C231.82 64.1845 231.885 63.8528 231.885 63.4738C231.885 63.0947 231.781 62.7372 231.573 62.3969C231.365 62.0523 231.07 61.8197 230.693 61.6991C231.01 61.5656 231.252 61.3631 231.421 61.0918C231.59 60.8247 231.677 60.5146 231.677 60.1657C231.677 59.4937 231.465 58.9768 231.044 58.6193C230.624 58.2618 230.091 58.0809 229.454 58.0809H226.559L226.554 58.0852ZM219.741 62.5046H216.508C216.573 62.0179 216.755 61.6345 217.067 61.3588C217.375 61.0831 217.743 60.9453 218.163 60.9453C218.632 60.9453 219.004 61.0831 219.29 61.3545C219.576 61.6259 219.724 62.0135 219.745 62.5175V62.5089L219.741 62.5046ZM220.205 64.6841L219.685 64.1543C219.533 64.3611 219.316 64.5205 219.039 64.6368C218.757 64.7531 218.48 64.8134 218.203 64.8134C217.747 64.8134 217.366 64.6712 217.05 64.3826C216.733 64.094 216.556 63.715 216.512 63.2412H220.482C220.569 62.2418 220.391 61.4794 219.949 60.9539C219.503 60.4241 218.905 60.1614 218.146 60.1614C217.44 60.1614 216.859 60.4155 216.408 60.9281C215.953 61.4364 215.728 62.0911 215.728 62.8836C215.728 63.6762 215.953 64.3783 216.408 64.8737C216.863 65.3733 217.453 65.6232 218.185 65.6232C218.571 65.6232 218.944 65.5456 219.312 65.3819C219.676 65.2226 219.975 64.99 220.201 64.6841H220.209H220.205ZM208.685 58.0852H207.918V65.5198H208.694V62.7372C208.694 62.2548 208.832 61.8499 209.114 61.5225C209.396 61.1951 209.747 61.0272 210.167 61.0272C210.588 61.0272 210.917 61.165 211.147 61.445C211.376 61.7249 211.493 62.1212 211.493 62.6381V65.5155H212.261V62.6252C212.261 61.88 212.091 61.2899 211.758 60.8549C211.424 60.4198 210.939 60.2001 210.302 60.2001C209.578 60.213 209.036 60.5275 208.685 61.1348V58.0766V58.0852ZM201.568 58.9122V65.5198H202.383V58.9122H204.646V58.0852H199.31V58.9122H201.573H201.568ZM192.211 60.2734H191.492V65.5198H192.267V62.5994C192.267 62.1298 192.402 61.7551 192.666 61.4665C192.931 61.1779 193.256 61.0315 193.641 61.0272C193.936 61.0272 194.209 61.1219 194.456 61.3157L194.807 60.5706C194.491 60.2949 194.131 60.1614 193.719 60.1786C193.039 60.1786 192.558 60.4672 192.281 61.0487L192.224 60.2647L192.215 60.2734H192.211ZM187.205 62.9095C187.201 63.4608 187.041 63.9131 186.729 64.2706C186.417 64.6238 186.022 64.8004 185.541 64.8004C185.06 64.8004 184.67 64.6238 184.358 64.2706C184.05 63.9174 183.894 63.4651 183.894 62.9095C183.894 62.328 184.05 61.8585 184.362 61.4967C184.674 61.1348 185.069 60.9539 185.55 60.9539C186.031 60.9539 186.417 61.1348 186.733 61.501C187.049 61.8671 187.205 62.3366 187.205 62.9095ZM183.118 62.9095C183.118 63.7021 183.348 64.3525 183.803 64.8607C184.258 65.369 184.839 65.6188 185.537 65.6188C186.234 65.6188 186.824 65.3647 187.283 64.8607C187.738 64.3525 187.968 63.7064 187.968 62.9095C187.968 62.1126 187.743 61.432 187.288 60.9238C186.833 60.4155 186.252 60.1571 185.537 60.1571C184.822 60.1571 184.258 60.4155 183.803 60.9281C183.348 61.4407 183.118 62.104 183.118 62.9095ZM175.391 58.0852V65.5327H176.214V62.4184H179.829V61.557H176.214V58.9639H179.989V58.0809H175.395L175.391 58.0852ZM166.506 60.9841C166.978 60.9841 167.373 61.1607 167.693 61.5139C168.01 61.8671 168.17 62.3194 168.17 62.875C168.17 63.4307 168.014 63.9002 167.698 64.2577C167.381 64.6109 166.987 64.7875 166.515 64.7875C166.042 64.7875 165.648 64.6195 165.336 64.2792C165.024 63.939 164.868 63.4738 164.868 62.8879C164.868 62.3021 165.024 61.8283 165.336 61.4923C165.648 61.1564 166.042 60.9884 166.515 60.9884H166.506V60.9841ZM168.963 58.0852H168.196V61.2296C168.04 60.8893 167.797 60.6309 167.468 60.45C167.139 60.269 166.801 60.1786 166.445 60.1786C165.756 60.1786 165.193 60.4198 164.751 60.8979C164.308 61.376 164.087 62.0437 164.087 62.9009C164.087 63.758 164.308 64.4085 164.755 64.8909C165.201 65.3776 165.765 65.6188 166.454 65.6188C166.814 65.6188 167.147 65.5284 167.459 65.3475C167.771 65.1666 168.018 64.9038 168.2 64.5549L168.239 65.5112H168.968V58.0766L168.959 58.0852H168.963ZM160.156 62.5046H156.923C156.988 62.0179 157.17 61.6345 157.482 61.3588C157.79 61.0831 158.158 60.9453 158.579 60.9453C159.047 60.9453 159.42 61.0831 159.706 61.3545C159.987 61.6259 160.139 62.0135 160.161 62.5175V62.5089L160.156 62.5046ZM160.62 64.6841L160.1 64.1543C159.948 64.3611 159.732 64.5205 159.454 64.6368C159.173 64.7531 158.895 64.8134 158.618 64.8134C158.163 64.8134 157.781 64.6712 157.465 64.3826C157.149 64.094 156.971 63.715 156.928 63.2412H160.898C160.984 62.2418 160.807 61.4794 160.364 60.9539C159.918 60.4241 159.32 60.1614 158.562 60.1614C157.855 60.1614 157.274 60.4155 156.819 60.9281C156.364 61.4364 156.139 62.0911 156.139 62.8836C156.139 63.6762 156.364 64.3783 156.819 64.8737C157.274 65.3733 157.864 65.6232 158.596 65.6232C158.982 65.6232 159.355 65.5456 159.723 65.3819C160.087 65.2226 160.386 64.99 160.612 64.6841H160.62ZM148.277 60.2734V65.5198H149.044V62.7027C149.044 62.2203 149.178 61.8154 149.447 61.4923C149.716 61.165 150.058 61.0013 150.483 60.9927C150.925 60.9927 151.272 61.1391 151.523 61.4277C151.774 61.7163 151.9 62.1169 151.9 62.6295V65.5198H152.676V62.6209C152.676 61.8714 152.485 61.277 152.104 60.8419C151.722 60.4069 151.228 60.1872 150.626 60.1872C149.958 60.1872 149.425 60.493 149.027 61.1004L148.988 60.2604H148.277V60.269V60.2734ZM140.575 62.7501C140.575 62.1772 140.744 61.7336 141.087 61.4148C141.429 61.1004 141.823 60.941 142.278 60.941C142.734 60.941 143.145 61.1004 143.475 61.4191C143.804 61.7379 143.973 62.1858 143.973 62.7587C143.973 63.267 143.817 63.6977 143.501 64.0509C143.184 64.3998 142.781 64.5765 142.291 64.5765C141.802 64.5765 141.394 64.4171 141.074 64.0983C140.753 63.7796 140.588 63.3316 140.58 62.7501H140.575ZM140.614 66.4028H139.869C139.856 67.0963 140.072 67.6433 140.515 68.0439C140.961 68.4445 141.542 68.6427 142.261 68.6427C142.929 68.6427 143.505 68.4617 143.982 68.0999C144.463 67.7381 144.701 67.2341 144.701 66.5923C144.701 65.7352 144.272 65.1666 143.414 64.8823C143.843 64.7272 144.168 64.4515 144.393 64.0596C144.619 63.6676 144.727 63.2282 144.727 62.7458C144.727 62.1212 144.523 61.557 144.12 61.0444L144.649 60.3423L144.099 59.8555L143.596 60.5361C143.262 60.2733 142.82 60.1441 142.274 60.1441C141.62 60.1441 141.043 60.3724 140.549 60.8333C140.055 61.2942 139.808 61.9317 139.808 62.7458C139.808 63.5599 140.033 64.1888 140.484 64.6454C140.935 65.1063 141.533 65.3346 142.278 65.3346C142.747 65.3346 143.132 65.4422 143.444 65.6619C143.756 65.8816 143.912 66.1917 143.912 66.5966C143.912 67.0231 143.752 67.3332 143.431 67.5356C143.111 67.7381 142.721 67.8372 142.27 67.8372C141.802 67.8286 141.412 67.7079 141.091 67.4667C140.775 67.2255 140.614 66.868 140.614 66.3942V66.4028ZM135.496 60.2518H136.271V65.5198H135.496V60.2518ZM135.383 58.6667C135.383 58.9079 135.47 59.0759 135.639 59.175C135.808 59.274 135.981 59.274 136.15 59.1793C136.319 59.0845 136.406 58.9165 136.406 58.6753C136.406 58.4341 136.319 58.2661 136.15 58.167C135.981 58.068 135.808 58.068 135.639 58.1627C135.47 58.2575 135.383 58.4255 135.383 58.6667ZM131.378 61.4277L131.825 60.8549C131.365 60.3853 130.772 60.1527 130.048 60.1527C129.727 60.1441 129.428 60.1915 129.155 60.2906C128.882 60.3897 128.648 60.5576 128.448 60.7989C128.253 61.0401 128.154 61.3373 128.154 61.6905C128.154 61.9575 128.206 62.1901 128.31 62.3754C128.414 62.5649 128.565 62.7113 128.761 62.8147C128.956 62.9224 129.146 63.0042 129.337 63.0602C129.528 63.1162 129.753 63.1636 130.017 63.1981C130.429 63.2541 130.741 63.3445 130.958 63.4651C131.175 63.5857 131.283 63.7753 131.274 64.038C131.27 64.3266 131.149 64.5377 130.91 64.6626C130.672 64.7918 130.403 64.8521 130.091 64.8521C129.372 64.8521 128.817 64.5851 128.427 64.0466L127.98 64.654C128.448 65.313 129.142 65.6404 130.069 65.6404C130.624 65.6404 131.088 65.5025 131.461 65.2312C131.833 64.9598 132.02 64.5721 132.028 64.0682C132.033 63.8184 131.994 63.603 131.907 63.4135C131.82 63.2239 131.716 63.0775 131.599 62.9741C131.482 62.8664 131.322 62.776 131.123 62.7027C130.919 62.6295 130.75 62.5778 130.607 62.5477C130.464 62.5175 130.282 62.4917 130.065 62.4615C129.298 62.3624 128.908 62.104 128.904 61.6862C128.899 61.4364 129.003 61.2468 129.22 61.1133C129.437 60.9798 129.718 60.9152 130.056 60.9238C130.598 60.9238 131.036 61.0918 131.37 61.432L131.378 61.4234V61.4277ZM124.149 62.5003H120.916C120.981 62.0135 121.163 61.6302 121.475 61.3545C121.783 61.0788 122.151 60.941 122.571 60.941C123.04 60.941 123.412 61.0788 123.698 61.3502C123.98 61.6216 124.132 62.0092 124.153 62.5132V62.5046L124.149 62.5003ZM124.613 64.6798L124.093 64.15C123.941 64.3568 123.724 64.5162 123.447 64.6325C123.165 64.7488 122.888 64.8091 122.611 64.8091C122.155 64.8091 121.774 64.6669 121.458 64.3783C121.141 64.0897 120.964 63.7107 120.92 63.2368H124.89C124.977 62.2375 124.799 61.4751 124.357 60.9496C123.911 60.4198 123.313 60.1571 122.554 60.1571C121.848 60.1571 121.267 60.4112 120.812 60.9238C120.357 61.432 120.131 62.0868 120.131 62.8793C120.131 63.6719 120.357 64.374 120.812 64.8694C121.267 65.369 121.856 65.6188 122.589 65.6188C122.975 65.6188 123.347 65.5413 123.716 65.3776C124.08 65.2183 124.379 64.9857 124.604 64.6798H124.613ZM113.552 64.5937H111.962V58.9639H113.552C114.354 58.9639 114.97 59.231 115.407 59.7694C115.841 60.3078 116.062 60.9539 116.062 61.7034C116.062 62.4529 115.849 63.1679 115.425 63.7365C115 64.3051 114.376 64.5937 113.557 64.5937H113.552ZM111.143 58.0809V65.5155H113.552C114.107 65.5155 114.605 65.4078 115.043 65.1924C115.481 64.977 115.832 64.6841 116.092 64.3223C116.352 63.9562 116.551 63.5556 116.682 63.1119C116.816 62.6683 116.881 62.2031 116.881 61.7163C116.881 61.2296 116.812 60.7989 116.673 60.3724C116.534 59.946 116.33 59.554 116.066 59.2094C115.802 58.8605 115.451 58.5848 115.017 58.3824C114.584 58.1756 114.094 58.0723 113.552 58.0723H111.143V58.0809Z" fill="#C7234B"/>
<path d="M262.258 7.92428H263.086V4.23282H262.146L261.058 5.64996L259.974 4.23282H259.025V7.92428H259.853V5.34414L260.962 6.79143H261.11L262.258 5.35706V7.92858V7.92428ZM256.568 7.91997H257.391V4.96078H258.522V4.22852H255.437V4.96078H256.568V7.91997Z" fill="#0055A3"/>
</g>
</g>
<defs>
<clipPath id="clip0_2621_3255">
<rect width="268.278" height="72.3645" fill="white" transform="translate(0.113281 0.154297)"/>
</clipPath>
</defs>
</svg>
